<?xml version="1.0" encoding="utf-8"?>
<!-- Generator: Adobe Illustrator 22.1.0, SVG Export Plug-In . SVG Version: 6.00 Build 0)  -->
<svg version="1.1" id="图层_1" xmlns="http://www.w3.org/2000/svg" xmlns:xlink="http://www.w3.org/1999/xlink" x="0px" y="0px"
	 viewBox="0 0 86 56" style="enable-background:new 0 0 86 56;" xml:space="preserve">
<style type="text/css">
	.st0{fill:none;}
	.st1{fill:url(#SVGID_1_);}
	.st2{fill:url(#SVGID_2_);}
	.st3{fill:url(#SVGID_3_);}
	.st4{opacity:0.64;fill:url(#SVGID_4_);enable-background:new    ;}
</style>
<g>
	<path class="st0" d="M0,0h86v56H0V0z"/>
	<g transform="translate(16 9)">
		<linearGradient id="SVGID_1_" gradientUnits="userSpaceOnUse" x1="4.4099" y1="-3.8535" x2="4.5349" y2="-2.6035">
			<stop  offset="0" style="stop-color:#FFFFFF"/>
			<stop  offset="1" style="stop-color:#000000"/>
		</linearGradient>
		<path class="st1" d="M12,13H0c0,2.9,2.9,2.9,2.9,2.9H11L0,34.2C0,37,2.8,37,2.8,37h11.8c0-2.7-2.6-2.8-2.6-2.8H2.9l11.7-18.3
			C14.6,13,12,13,12,13"/>
		<linearGradient id="SVGID_2_" gradientUnits="userSpaceOnUse" x1="23.894" y1="-5.8019" x2="24.019" y2="-4.5519">
			<stop  offset="0" style="stop-color:#FFFFFF"/>
			<stop  offset="1" style="stop-color:#000000"/>
		</linearGradient>
		<path class="st2" d="M34.3,34.2c0,0,0,2.8-2.8,2.8l-9.2,0c-0.3,0-2.7-0.2-2.7-2.8H34.3z M34.3,23.6v2.8H19.7v-2.8H34.3z M31.5,13
			c2.7,0,2.8,2.9,2.8,2.9H19.7c0-2.6,2.7-2.9,2.7-2.9H31.5z"/>
		<linearGradient id="SVGID_3_" gradientUnits="userSpaceOnUse" x1="43.8511" y1="-7.7976" x2="43.9761" y2="-6.5476">
			<stop  offset="0" style="stop-color:#FFFFFF"/>
			<stop  offset="1" style="stop-color:#000000"/>
		</linearGradient>
		<path class="st3" d="M50.9,15.9v16.4c0,0,0,1.9-1.7,1.9l-6,0c0,0-1.7,0-1.7-1.9l0-15.2c0,0,0-1.2,1.6-1.2L50.9,15.9z M53.7,34.2V0
			h-2.8v13h-9.2C39,13,39,15.9,39,15.9v18.3c0,2.8,2.7,2.8,2.7,2.8H51C53.8,37,53.7,34.2,53.7,34.2z"/>
	</g>
	<linearGradient id="SVGID_4_" gradientUnits="userSpaceOnUse" x1="31.1493" y1="4.0726" x2="31.2743" y2="5.3226">
		<stop  offset="0" style="stop-color:#FFFFFF"/>
		<stop  offset="1" style="stop-color:#000000"/>
	</linearGradient>
	<path class="st4" d="M20.3,17.4c1.1,0,1.9-0.2,2.5-0.6s0.9-1,0.9-1.7c0-0.5-0.1-1-0.4-1.3s-0.6-0.6-1.1-0.8
		c0.4-0.2,0.6-0.4,0.8-0.8s0.3-0.7,0.3-1.1c0-0.7-0.3-1.2-0.8-1.6S21.1,9,20.1,9H16v8.4H20.3z M19.9,12.4h-1.9v-2h1.9
		c0.5,0,0.8,0.1,1.1,0.2s0.4,0.4,0.4,0.7S21.2,12,21,12.2S20.3,12.4,19.9,12.4z M20.2,15.9h-2.3v-2.1h2.3c1,0,1.5,0.3,1.5,1
		c0,0.4-0.1,0.6-0.4,0.8S20.7,15.9,20.2,15.9z M31.7,17.4v-1.6h-4.6v-1.9H31v-1.5h-3.9v-1.8h4.4V9h-6.3v8.4H31.7z M36.9,17.4v-6.8
		h2.7V9h-7.3v1.6H35v6.8H36.9z M41.5,17.4l0.7-1.8h3.9l0.7,1.8h2L45.2,9h-1.9l-3.7,8.4H41.5z M45.6,14.1h-2.7l1.3-3.2L45.6,14.1z"/>
</g>
</svg>
