<svg width="123" height="55" viewBox="0 0 123 55" fill="none" xmlns="http://www.w3.org/2000/svg">
<path d="M22.3418 51.6402C22.3418 52.9422 21.2839 54 19.9819 54C18.6799 54 17.6221 52.9422 17.6221 51.6402V35.311C17.6221 34.009 18.6799 32.9512 19.9819 32.9512C21.2839 32.9512 22.3418 34.009 22.3418 35.311V51.6402Z" fill="#88B6D0"/>
<path opacity="0.25" d="M20.3888 32.9783C20.2532 32.9512 20.1447 32.9512 20.009 32.9512C18.707 32.9512 17.6492 34.009 17.6492 35.311V51.6402C17.6492 51.8029 17.6763 51.9657 17.7034 52.1013C20.1718 49.7414 21.8264 45.4557 21.8264 40.519C21.8264 37.7251 21.2839 35.1483 20.3888 32.9783Z" fill="black" fill-opacity="0.2"/>
<g filter="url(#filter0_d)">
<path d="M29.991 19.9819C29.991 14.4756 25.5154 10 20.0091 10C14.598 10 10.1824 14.322 10.0311 19.697C10.0258 19.8862 10.0096 20.0759 10.003 20.265C10 20.3493 10 20.4338 10 20.5244V39.9729C10 42.5769 12.1157 44.6927 14.7197 44.6927H25.2713C27.8753 44.6927 29.991 42.5769 29.991 39.9729V20.5244C29.991 20.4431 29.991 20.3617 29.991 20.2532C29.991 20.1718 29.991 20.0633 29.991 19.9819Z" fill="#F6F9FA"/>
</g>
<mask id="mask0" mask-type="alpha" maskUnits="userSpaceOnUse" x="10" y="10" width="20" height="35">
<path d="M29.991 19.9819C29.991 14.4756 25.5154 10 20.0091 10C14.598 10 10.1824 14.322 10.0311 19.697C10.0258 19.8862 10.0096 20.0759 10.003 20.265C10 20.3493 10 20.4338 10 20.5244V39.9729C10 42.5769 12.1157 44.6927 14.7197 44.6927H25.2713C27.8753 44.6927 29.991 42.5769 29.991 39.9729V20.5244C29.991 20.4431 29.991 20.3617 29.991 20.2532C29.991 20.1718 29.991 20.0633 29.991 19.9819Z" fill="#F6F9FA"/>
</mask>
<g mask="url(#mask0)">
<g filter="url(#filter1_d)">
<path d="M20.0091 10C14.598 10 10.1824 14.322 10.0311 19.697C10.0258 19.8862 10.0096 20.0759 10.003 20.265C10 20.3493 10 20.4338 10 20.5244V35.8615C10 37.7644 11.3531 39.4689 13.2534 39.3722C20.075 39.025 26.7466 33.4675 29.7714 25.2159C29.9216 24.8061 29.991 24.3705 29.991 23.934V20.5244C29.991 20.4431 29.991 20.3617 29.991 20.2532C29.991 20.1447 29.991 20.0633 29.991 19.9548C29.991 14.4485 25.5154 10 20.0091 10Z" fill="#F6F9FA"/>
</g>
<g filter="url(#filter2_d)">
<path d="M20.0091 10C14.598 10 10.1824 14.322 10.0311 19.697C10.0258 19.8862 10.0096 20.0759 10.003 20.265C10 20.3493 10 20.4338 10 20.5244V29.7911C10 31.799 11.5092 33.5565 13.4989 33.2872C20.3799 32.3558 26.9192 26.2114 29.4485 17.4865V17.4865C29.5028 17.2152 29.5184 16.94 29.428 16.6785C28.0837 12.7904 24.3635 10 20.0091 10Z" fill="#F6F9FA"/>
</g>
<g filter="url(#filter3_d)">
<path d="M24.4508 20.2007C24.4508 24.4259 18.1963 28.2761 14.6753 28.2761C11.7002 28.2761 11.7002 24.4259 11.7002 20.2007C11.7002 15.9755 14.5545 12.5503 18.0755 12.5503C21.5965 12.5503 24.4508 15.9755 24.4508 20.2007Z" fill="#F6F9FA"/>
</g>
<g filter="url(#filter4_d)">
<path d="M18.5757 18.8839C18.3858 20.7013 17.2466 22.0575 16.0531 21.9219C14.8325 21.7863 14.0187 20.2402 14.2086 18.4228C14.3985 16.6054 15.5377 15.2492 16.7312 15.3848C17.9247 15.4933 18.7656 17.0666 18.5757 18.8839Z" fill="#F6F9FA"/>
</g>
<g filter="url(#filter5_d)">
<path d="M29.9909 19.9819C29.9909 14.4756 25.5154 10 20.009 10V10C19.7333 10 19.7094 10.3794 19.972 10.4636C23.9873 11.7499 26.8987 15.5316 26.8987 19.9819C26.8987 20.0904 26.8987 20.1718 26.8987 20.2803C26.8987 20.3617 26.8987 20.4431 26.8987 20.5516V40.0001C26.8987 42.604 24.783 44.7198 22.179 44.7198H25.2712C27.8752 44.7198 29.9909 42.604 29.9909 40.0001V20.5244C29.9909 20.4431 29.9909 20.3617 29.9909 20.2532C29.9909 20.1718 29.9909 20.0633 29.9909 19.9819Z" fill="#F6F9FA"/>
</g>
</g>
<path d="M41.5628 27.6062V32.9513H38.6863V18.5482H43.9293C45.6294 18.5482 46.9079 18.9562 47.7647 19.7722C48.6352 20.5883 49.0704 21.6967 49.0704 23.0976C49.0704 24.4712 48.6216 25.5661 47.7239 26.3821C46.8399 27.1982 45.575 27.6062 43.9293 27.6062H41.5628ZM43.6233 25.3009C45.3098 25.3009 46.153 24.5665 46.153 23.0976C46.153 22.3767 45.9558 21.8259 45.5614 21.4451C45.167 21.0643 44.521 20.8739 43.6233 20.8739H41.5628V25.3009H43.6233Z" fill="white"/>
<path d="M56.1615 21.5063C57.2631 21.5063 58.2492 21.7375 59.1196 22.1999C60.0037 22.6624 60.6973 23.3356 61.2005 24.2196C61.7038 25.0901 61.9554 26.1169 61.9554 27.3002C61.9554 28.4834 61.7038 29.5103 61.2005 30.3807C60.6973 31.2512 60.0037 31.9244 59.1196 32.4004C58.2492 32.8629 57.2631 33.0941 56.1615 33.0941C55.0598 33.0941 54.067 32.8629 53.1829 32.4004C52.3125 31.9244 51.6257 31.2512 51.1224 30.3807C50.6192 29.5103 50.3676 28.4834 50.3676 27.3002C50.3676 26.1169 50.6192 25.0901 51.1224 24.2196C51.6257 23.3356 52.3125 22.6624 53.1829 22.1999C54.067 21.7375 55.0598 21.5063 56.1615 21.5063ZM56.1615 23.9952C55.3591 23.9952 54.679 24.2808 54.1214 24.8521C53.5638 25.4097 53.2849 26.2257 53.2849 27.3002C53.2849 28.3746 53.5638 29.1975 54.1214 29.7687C54.679 30.3263 55.3591 30.6051 56.1615 30.6051C56.9639 30.6051 57.644 30.3263 58.2016 29.7687C58.7592 29.1975 59.038 28.3746 59.038 27.3002C59.038 26.2257 58.7592 25.4097 58.2016 24.8521C57.644 24.2808 56.9639 23.9952 56.1615 23.9952Z" fill="white"/>
<path d="M70.741 21.5063C71.6931 21.5063 72.5499 21.7375 73.3116 22.1999C74.0732 22.6624 74.6648 23.3356 75.0864 24.2196C75.5217 25.0901 75.7393 26.1169 75.7393 27.3002C75.7393 28.4834 75.5217 29.5171 75.0864 30.4011C74.6648 31.2716 74.0732 31.938 73.3116 32.4004C72.5499 32.8629 71.6931 33.0941 70.741 33.0941C69.789 33.0941 68.9729 32.8697 68.2929 32.4208C67.6265 31.9584 67.1505 31.3464 66.8648 30.5847V38.3371H63.9883V21.6491H66.8648V23.9952C67.1505 23.2336 67.6265 22.6284 68.2929 22.1795C68.9729 21.7307 69.789 21.5063 70.741 21.5063ZM69.8434 24.0156C68.9729 24.0156 68.2521 24.3148 67.6809 24.9133C67.1233 25.4981 66.8444 26.2937 66.8444 27.3002C66.8444 28.293 67.1233 29.0887 67.6809 29.6871C68.2521 30.2719 68.9729 30.5643 69.8434 30.5643C70.741 30.5643 71.4619 30.2787 72.0059 29.7075C72.5499 29.1227 72.8219 28.3202 72.8219 27.3002C72.8219 26.2801 72.5499 25.4777 72.0059 24.8929C71.4619 24.308 70.741 24.0156 69.8434 24.0156Z" fill="white"/>
<path d="M81.6715 21.5063C83.0452 21.5063 84.1468 21.8531 84.9765 22.5468C85.8061 23.2404 86.3229 24.1652 86.5269 25.3213H83.834C83.7252 24.7773 83.4804 24.342 83.0996 24.0156C82.7188 23.6892 82.2223 23.526 81.6103 23.526C81.1207 23.526 80.7399 23.6416 80.4678 23.8728C80.1958 24.104 80.0598 24.4168 80.0598 24.8113C80.0598 25.1241 80.1686 25.3757 80.3862 25.5661C80.6039 25.7565 80.8759 25.9061 81.2023 26.0149C81.5287 26.1237 81.9979 26.2529 82.61 26.4025C83.4668 26.593 84.1604 26.797 84.6909 27.0146C85.2349 27.2186 85.6973 27.5518 86.0781 28.0142C86.4725 28.463 86.6698 29.0751 86.6698 29.8503C86.6698 30.816 86.2889 31.598 85.5273 32.1964C84.7793 32.7949 83.766 33.0941 82.4875 33.0941C81.0187 33.0941 79.8422 32.7677 78.9582 32.1148C78.0741 31.4484 77.5369 30.5031 77.3465 29.2791H80.1006C80.1686 29.8367 80.4134 30.2787 80.8351 30.6051C81.2567 30.918 81.8075 31.0744 82.4875 31.0744C82.9772 31.0744 83.3512 30.9588 83.6096 30.7276C83.868 30.4827 83.9972 30.1699 83.9972 29.7891C83.9972 29.4627 83.8816 29.1975 83.6504 28.9935C83.4328 28.7895 83.154 28.6331 82.814 28.5242C82.4875 28.4154 82.0183 28.2862 81.4063 28.1366C80.5631 27.9462 79.8762 27.7558 79.3458 27.5654C78.829 27.3614 78.3801 27.0418 77.9993 26.6066C77.6321 26.1713 77.4485 25.5729 77.4485 24.8113C77.4485 23.832 77.8225 23.0364 78.5706 22.4243C79.3186 21.8123 80.3522 21.5063 81.6715 21.5063Z" fill="white"/>
<path d="M88.4858 18.4053C88.4858 17.9429 88.649 17.5689 88.9754 17.2833C89.3018 16.9841 89.7302 16.8345 90.2606 16.8345C90.7911 16.8345 91.2195 16.9841 91.5459 17.2833C91.8723 17.5689 92.0355 17.9429 92.0355 18.4053C92.0355 18.8542 91.8723 19.2282 91.5459 19.5274C91.2195 19.813 90.7911 19.9558 90.2606 19.9558C89.7302 19.9558 89.3018 19.813 88.9754 19.5274C88.649 19.2282 88.4858 18.8542 88.4858 18.4053ZM91.6887 21.6491V32.9513H88.8122V21.6491H91.6887Z" fill="white"/>
<path d="M99.3708 21.5063C100.826 21.5063 102.037 21.9007 103.002 22.6896C103.981 23.4784 104.593 24.5529 104.838 25.9129H101.799C101.676 25.3145 101.397 24.8453 100.962 24.5052C100.527 24.1516 99.976 23.9748 99.3096 23.9748C98.548 23.9748 97.9087 24.2604 97.3919 24.8317C96.8887 25.3893 96.6371 26.2121 96.6371 27.3002C96.6371 28.3882 96.8887 29.2179 97.3919 29.7891C97.9087 30.3467 98.548 30.6255 99.3096 30.6255C99.976 30.6255 100.527 30.4555 100.962 30.1155C101.397 29.7619 101.676 29.2859 101.799 28.6875H104.838C104.593 30.0475 103.981 31.122 103.002 31.9108C102.037 32.6996 100.826 33.0941 99.3708 33.0941C98.2692 33.0941 97.2899 32.8629 96.4331 32.4004C95.5762 31.9244 94.9098 31.2512 94.4338 30.3807C93.9577 29.5103 93.7197 28.4834 93.7197 27.3002C93.7197 26.1169 93.9577 25.0901 94.4338 24.2196C94.9098 23.3356 95.5762 22.6624 96.4331 22.1999C97.2899 21.7375 98.2692 21.5063 99.3708 21.5063Z" fill="white"/>
<path d="M109.759 17.8545V32.9513H106.882V17.8545H109.759Z" fill="white"/>
<path d="M122.99 26.8718C122.99 27.1574 122.956 27.4838 122.888 27.851H114.605C114.646 28.8575 114.918 29.5987 115.421 30.0747C115.924 30.5507 116.55 30.7888 117.298 30.7888C117.964 30.7888 118.515 30.6255 118.951 30.2991C119.399 29.9727 119.685 29.5307 119.807 28.9731H122.847C122.697 29.7619 122.378 30.4691 121.888 31.0948C121.399 31.7204 120.766 32.21 119.991 32.5636C119.229 32.9173 118.379 33.0941 117.441 33.0941C116.339 33.0941 115.36 32.8629 114.503 32.4004C113.646 31.9244 112.98 31.2512 112.504 30.3807C112.028 29.5103 111.79 28.4834 111.79 27.3002C111.79 26.1169 112.028 25.0901 112.504 24.2196C112.98 23.3356 113.646 22.6624 114.503 22.1999C115.36 21.7375 116.339 21.5063 117.441 21.5063C118.556 21.5063 119.529 21.7375 120.358 22.1999C121.201 22.6624 121.847 23.3016 122.296 24.1176C122.759 24.9201 122.99 25.8381 122.99 26.8718ZM120.093 26.5861C120.134 25.6613 119.889 24.9609 119.359 24.4848C118.842 24.0088 118.202 23.7708 117.441 23.7708C116.666 23.7708 116.013 24.0088 115.482 24.4848C114.952 24.9609 114.659 25.6613 114.605 26.5861H120.093Z" fill="white"/>
<path d="M51.1678 40.7174C50.5059 40.7084 50.0435 40.8217 49.7806 41.0575C49.5267 41.2932 49.3998 41.7012 49.3998 42.2815V42.4855H51.1678V43.5736H49.3998V49.9523H48.1621V43.5736H47.0876V42.4855H48.1621V42.1863C48.1621 40.4001 49.164 39.5478 51.1678 39.6294V40.7174Z" fill="white"/>
<path d="M54.9461 40.2958C54.9461 40.0691 55.0231 39.8878 55.1773 39.7518C55.3314 39.6067 55.5354 39.5342 55.7893 39.5342C56.0432 39.5342 56.2472 39.6067 56.4013 39.7518C56.5555 39.8878 56.6326 40.0691 56.6326 40.2958C56.6326 40.5225 56.5555 40.7084 56.4013 40.8534C56.2472 40.9895 56.0432 41.0575 55.7893 41.0575C55.5354 41.0575 55.3314 40.9895 55.1773 40.8534C55.0231 40.7084 54.9461 40.5225 54.9461 40.2958ZM56.4013 42.4855V49.9523H55.1637V42.4855H56.4013Z" fill="white"/>
<path d="M64.9739 42.3631C65.8443 42.3631 66.547 42.6442 67.082 43.2064C67.617 43.7595 67.8844 44.5619 67.8844 45.6137V49.9523H66.6468V45.7225C66.6468 44.979 66.4564 44.4078 66.0756 44.0088C65.6947 43.6098 65.1779 43.4104 64.5251 43.4104C63.845 43.4104 63.301 43.6325 62.893 44.0768C62.485 44.512 62.281 45.1513 62.281 45.9945V49.9523H61.0433V42.4855H62.281V44.2536C62.4714 43.6461 62.8069 43.1792 63.2874 42.8527C63.777 42.5263 64.3392 42.3631 64.9739 42.3631Z" fill="white"/>
<path d="M75.4951 42.3903C76.2204 42.3903 76.8325 42.5717 77.3312 42.9343C77.8389 43.297 78.1925 43.7821 78.392 44.3896V42.4855H79.6297V49.9523H78.392V48.0482C78.1925 48.6557 77.8389 49.1408 77.3312 49.5035C76.8325 49.8662 76.2204 50.0475 75.4951 50.0475C74.8332 50.0475 74.2438 49.8934 73.727 49.5851C73.2102 49.2768 72.8021 48.837 72.5029 48.2658C72.2128 47.6855 72.0677 47.0055 72.0677 46.2257C72.0677 45.4459 72.2128 44.7659 72.5029 44.1856C72.8021 43.6053 73.2102 43.161 73.727 42.8527C74.2438 42.5445 74.8332 42.3903 75.4951 42.3903ZM75.8487 43.492C75.0871 43.492 74.475 43.7368 74.0126 44.2264C73.5593 44.707 73.3326 45.3734 73.3326 46.2257C73.3326 47.078 73.5593 47.749 74.0126 48.2386C74.475 48.7192 75.0871 48.9594 75.8487 48.9594C76.3383 48.9594 76.7735 48.8461 77.1544 48.6194C77.5442 48.3927 77.848 48.0754 78.0656 47.6674C78.2832 47.2503 78.392 46.7697 78.392 46.2257C78.392 45.6817 78.2832 45.2011 78.0656 44.784C77.848 44.3669 77.5442 44.0496 77.1544 43.832C76.7735 43.6053 76.3383 43.492 75.8487 43.492Z" fill="white"/>
<path d="M88.1822 42.3631C89.0526 42.3631 89.7553 42.6442 90.2903 43.2064C90.8252 43.7595 91.0927 44.5619 91.0927 45.6137V49.9523H89.855V45.7225C89.855 44.979 89.6646 44.4078 89.2838 44.0088C88.903 43.6098 88.3862 43.4104 87.7333 43.4104C87.0533 43.4104 86.5093 43.6325 86.1013 44.0768C85.6932 44.512 85.4892 45.1513 85.4892 45.9945V49.9523H84.2516V42.4855H85.4892V44.2536C85.6796 43.6461 86.0151 43.1792 86.4957 42.8527C86.9853 42.5263 87.5475 42.3631 88.1822 42.3631Z" fill="white"/>
<path d="M98.9481 42.3903C99.9002 42.3903 100.689 42.6442 101.315 43.152C101.94 43.6597 102.326 44.3397 102.471 45.1921H101.165C101.074 44.6571 100.825 44.24 100.417 43.9408C100.018 43.6325 99.5194 43.4784 98.9209 43.4784C98.4857 43.4784 98.0868 43.5781 97.7241 43.7776C97.3705 43.9771 97.0849 44.2853 96.8672 44.7024C96.6496 45.1105 96.5408 45.6182 96.5408 46.2257C96.5408 46.8332 96.6496 47.3455 96.8672 47.7626C97.0849 48.1706 97.3705 48.4744 97.7241 48.6738C98.0868 48.8733 98.4857 48.973 98.9209 48.973C99.5194 48.973 100.018 48.8189 100.417 48.5106C100.825 48.2023 101.074 47.7807 101.165 47.2458H102.471C102.326 48.1071 101.94 48.7917 101.315 49.2995C100.689 49.7981 99.9002 50.0475 98.9481 50.0475C98.2318 50.0475 97.5972 49.8934 97.0441 49.5851C96.491 49.2768 96.0557 48.837 95.7384 48.2658C95.4301 47.6855 95.276 47.0055 95.276 46.2257C95.276 45.4459 95.4301 44.7659 95.7384 44.1856C96.0557 43.6053 96.491 43.161 97.0441 42.8527C97.5972 42.5445 98.2318 42.3903 98.9481 42.3903Z" fill="white"/>
<path d="M113.611 45.8041C113.611 46.067 113.593 46.2937 113.557 46.4841H107.586C107.613 47.3364 107.853 47.9757 108.307 48.4018C108.769 48.828 109.331 49.041 109.993 49.041C110.592 49.041 111.09 48.8914 111.489 48.5922C111.897 48.2839 112.147 47.8759 112.237 47.3682H113.557C113.466 47.885 113.262 48.3474 112.945 48.7554C112.636 49.1635 112.233 49.4808 111.734 49.7075C111.235 49.9342 110.673 50.0475 110.048 50.0475C109.331 50.0475 108.697 49.8934 108.143 49.5851C107.59 49.2768 107.155 48.837 106.838 48.2658C106.53 47.6855 106.375 47.0055 106.375 46.2257C106.375 45.4459 106.53 44.7659 106.838 44.1856C107.155 43.6053 107.59 43.161 108.143 42.8527C108.697 42.5445 109.331 42.3903 110.048 42.3903C110.773 42.3903 111.403 42.5445 111.938 42.8527C112.482 43.161 112.895 43.5736 113.176 44.0904C113.466 44.6072 113.611 45.1785 113.611 45.8041ZM112.36 45.8857C112.387 45.3326 112.296 44.8702 112.088 44.4984C111.879 44.1267 111.594 43.8501 111.231 43.6688C110.868 43.4874 110.474 43.3968 110.048 43.3968C109.368 43.3968 108.796 43.6098 108.334 44.036C107.871 44.4531 107.622 45.0697 107.586 45.8857H112.36Z" fill="white"/>
<defs>
<filter id="filter0_d" x="0" y="0" width="39.991" height="54.6927" filterUnits="userSpaceOnUse" color-interpolation-filters="sRGB">
<feFlood flood-opacity="0" result="BackgroundImageFix"/>
<feColorMatrix in="SourceAlpha" type="matrix" values="0 0 0 0 0 0 0 0 0 0 0 0 0 0 0 0 0 0 127 0"/>
<feOffset/>
<feGaussianBlur stdDeviation="5"/>
<feColorMatrix type="matrix" values="0 0 0 0 0.076875 0 0 0 0 0.573338 0 0 0 0 0.683333 0 0 0 0.4 0"/>
<feBlend mode="normal" in2="BackgroundImageFix" result="effect1_dropShadow"/>
<feBlend mode="normal" in="SourceGraphic" in2="effect1_dropShadow" result="shape"/>
</filter>
<filter id="filter1_d" x="0" y="0" width="39.991" height="49.3761" filterUnits="userSpaceOnUse" color-interpolation-filters="sRGB">
<feFlood flood-opacity="0" result="BackgroundImageFix"/>
<feColorMatrix in="SourceAlpha" type="matrix" values="0 0 0 0 0 0 0 0 0 0 0 0 0 0 0 0 0 0 127 0"/>
<feOffset/>
<feGaussianBlur stdDeviation="5"/>
<feColorMatrix type="matrix" values="0 0 0 0 0 0 0 0 0 0.52 0 0 0 0 1 0 0 0 0.85 0"/>
<feBlend mode="normal" in2="BackgroundImageFix" result="effect1_dropShadow"/>
<feBlend mode="normal" in="SourceGraphic" in2="effect1_dropShadow" result="shape"/>
</filter>
<filter id="filter2_d" x="0" y="0" width="39.4925" height="43.3146" filterUnits="userSpaceOnUse" color-interpolation-filters="sRGB">
<feFlood flood-opacity="0" result="BackgroundImageFix"/>
<feColorMatrix in="SourceAlpha" type="matrix" values="0 0 0 0 0 0 0 0 0 0 0 0 0 0 0 0 0 0 127 0"/>
<feOffset/>
<feGaussianBlur stdDeviation="5"/>
<feColorMatrix type="matrix" values="0 0 0 0 0.168627 0 0 0 0 0.823529 0 0 0 0 0.968627 0 0 0 0.85 0"/>
<feBlend mode="normal" in2="BackgroundImageFix" result="effect1_dropShadow"/>
<feBlend mode="normal" in="SourceGraphic" in2="effect1_dropShadow" result="shape"/>
</filter>
<filter id="filter3_d" x="1.7002" y="2.55029" width="32.7506" height="35.7258" filterUnits="userSpaceOnUse" color-interpolation-filters="sRGB">
<feFlood flood-opacity="0" result="BackgroundImageFix"/>
<feColorMatrix in="SourceAlpha" type="matrix" values="0 0 0 0 0 0 0 0 0 0 0 0 0 0 0 0 0 0 127 0"/>
<feOffset/>
<feGaussianBlur stdDeviation="5"/>
<feColorMatrix type="matrix" values="0 0 0 0 0.168627 0 0 0 0 0.823529 0 0 0 0 0.968627 0 0 0 0.4 0"/>
<feBlend mode="normal" in2="BackgroundImageFix" result="effect1_dropShadow"/>
<feBlend mode="normal" in="SourceGraphic" in2="effect1_dropShadow" result="shape"/>
</filter>
<filter id="filter4_d" x="4.18115" y="5.37549" width="24.4214" height="26.5558" filterUnits="userSpaceOnUse" color-interpolation-filters="sRGB">
<feFlood flood-opacity="0" result="BackgroundImageFix"/>
<feColorMatrix in="SourceAlpha" type="matrix" values="0 0 0 0 0 0 0 0 0 0 0 0 0 0 0 0 0 0 127 0"/>
<feOffset/>
<feGaussianBlur stdDeviation="5"/>
<feColorMatrix type="matrix" values="0 0 0 0 0.168627 0 0 0 0 0.823529 0 0 0 0 0.968627 0 0 0 0.4 0"/>
<feBlend mode="normal" in2="BackgroundImageFix" result="effect1_dropShadow"/>
<feBlend mode="normal" in="SourceGraphic" in2="effect1_dropShadow" result="shape"/>
</filter>
<filter id="filter5_d" x="9.78809" y="0" width="30.203" height="54.7198" filterUnits="userSpaceOnUse" color-interpolation-filters="sRGB">
<feFlood flood-opacity="0" result="BackgroundImageFix"/>
<feColorMatrix in="SourceAlpha" type="matrix" values="0 0 0 0 0 0 0 0 0 0 0 0 0 0 0 0 0 0 127 0"/>
<feOffset/>
<feGaussianBlur stdDeviation="5"/>
<feColorMatrix type="matrix" values="0 0 0 0 0.168627 0 0 0 0 0.823529 0 0 0 0 0.968627 0 0 0 0.4 0"/>
<feBlend mode="normal" in2="BackgroundImageFix" result="effect1_dropShadow"/>
<feBlend mode="normal" in="SourceGraphic" in2="effect1_dropShadow" result="shape"/>
</filter>
</defs>
</svg>
