<svg width="147" height="30" viewBox="0 0 147 30" fill="none" xmlns="http://www.w3.org/2000/svg">
<path fill-rule="evenodd" clip-rule="evenodd" d="M15 0C12.3281 0 9.81598 0.699657 7.64063 1.92664C3.08244 4.49765 0 9.38802 0 15C0 23.2843 6.71573 30 15 30C23.2843 30 30 23.2843 30 15C30 6.71573 23.2843 0 15 0ZM9.48052 16.03V3.74497C11.1447 2.92717 13.0171 2.46753 15 2.46753C21.9215 2.46753 27.5325 8.07851 27.5325 15C27.5325 19.1082 25.5559 22.7553 22.5004 25.0413C22.9249 24.0595 23.1602 22.9769 23.1602 21.8398C23.1602 17.3809 19.5455 13.7662 15.0866 13.7662C12.9088 13.7662 10.9323 14.6288 9.48052 16.03ZM7.01299 22.4242H7.03383C7.10508 23.4196 7.35688 24.3653 7.75656 25.2285C4.55549 22.9575 2.46753 19.2223 2.46753 15C2.46753 11.1148 4.23482 7.64176 7.01299 5.34175V22.4242ZM9.48052 21.8398C9.48052 18.7437 11.9904 16.2338 15.0866 16.2338C18.1827 16.2338 20.6926 18.7437 20.6926 21.8398C20.6926 24.936 18.1827 27.4459 15.0866 27.4459C11.9904 27.4459 9.48052 24.936 9.48052 21.8398Z" fill="#651ED9"/>
<path d="M42.0956 17.6306C42.0956 16.3977 42.5229 15.3235 43.4018 14.3957C44.2807 13.468 45.2572 13.0041 46.3437 13.0041C47.369 13.0041 48.2968 13.4558 49.1146 14.3591C49.9325 15.2624 50.3476 16.3489 50.3476 17.6306C50.3476 18.9123 49.9325 19.9988 49.1146 20.9021C48.2968 21.8054 47.369 22.2449 46.3437 22.2449C45.2572 22.2449 44.2807 21.7932 43.4018 20.8655C42.5229 19.9377 42.0956 18.8635 42.0956 17.6306ZM42.0956 6.11938H40.35V23.6243H42.0956V21.7444L42.2787 21.9763C42.3886 22.1228 42.5595 22.3059 42.8036 22.5134C43.0478 22.7209 43.3285 22.9285 43.6581 23.1238C43.9755 23.3313 44.3783 23.5022 44.8544 23.6487C45.3305 23.7952 45.831 23.8684 46.3437 23.8684C47.8817 23.8684 49.2245 23.2581 50.372 22.0373C51.5194 20.8166 52.0932 19.3396 52.0932 17.6306C52.0932 15.9216 51.5072 14.4446 50.3598 13.2239C49.2123 11.991 47.8695 11.3806 46.3437 11.3806C45.831 11.3806 45.3305 11.4539 44.8422 11.6003C44.3539 11.7468 43.9633 11.9177 43.6581 12.113C43.3407 12.3083 43.06 12.5281 42.7914 12.7722C42.5229 13.0164 42.352 13.1872 42.2665 13.2849C42.1811 13.3826 42.12 13.468 42.0956 13.5168V6.11938Z" fill="#08090A"/>
<path d="M57.5927 16.7517C56.4574 16.947 55.5907 17.3498 54.9926 17.9602C54.3822 18.5706 54.0893 19.3762 54.0893 20.3772C54.0893 21.2927 54.4921 22.0984 55.31 22.8064C56.1278 23.5144 57.141 23.8684 58.3373 23.8684C58.8134 23.8684 59.2772 23.8074 59.7289 23.6731C60.1806 23.551 60.5468 23.4045 60.8275 23.2336C61.0961 23.0627 61.3524 22.8796 61.5966 22.6599C61.8407 22.4402 61.9872 22.2937 62.0604 22.2082C62.1337 22.1228 62.1825 22.0496 62.2191 22.0007V23.6243H63.9647V15.9949C63.9647 14.6887 63.5131 13.5901 62.6098 12.699C61.7064 11.8201 60.5834 11.3684 59.2162 11.3684C58.6791 11.3684 58.142 11.4539 57.6293 11.6125C57.1166 11.7712 56.7016 11.9543 56.3842 12.1497C56.0668 12.3572 55.7616 12.5891 55.4687 12.8455C55.1757 13.1018 54.9926 13.2849 54.9071 13.3826C54.8217 13.4802 54.7606 13.5657 54.7118 13.6267L55.8349 14.7498L56.2133 14.3225C56.4574 14.0295 56.8603 13.7366 57.4218 13.4436C57.9833 13.1506 58.5814 13.0041 59.2162 13.0041C60.0951 13.0041 60.8153 13.2849 61.3769 13.8342C61.9384 14.3957 62.2191 15.116 62.2191 15.9949L57.5927 16.7517ZM58.3373 22.2449C57.5561 22.2449 56.9335 22.074 56.494 21.72C56.0546 21.366 55.8349 20.9143 55.8349 20.3772C55.8349 19.2541 56.5917 18.5461 58.0932 18.2532L62.2191 17.4963V18.2532C62.2191 19.4373 61.8529 20.4016 61.1205 21.134C60.3881 21.8787 59.4604 22.2449 58.3373 22.2449Z" fill="#08090A"/>
<path d="M74.9574 13.0041L74.7743 12.821C74.6767 12.7234 74.5058 12.6013 74.286 12.4304C74.0663 12.2595 73.81 12.1008 73.5292 11.9421C73.2362 11.7834 72.87 11.6492 72.4306 11.5393C71.9911 11.4294 71.5395 11.3684 71.0756 11.3684C69.9281 11.3684 68.9638 11.7102 68.2069 12.3816C67.4501 13.0652 67.0717 13.8464 67.0717 14.7498C67.0717 15.5188 67.2914 16.1414 67.7431 16.6296C68.1947 17.1179 68.744 17.4719 69.3788 17.6916C70.0136 17.9114 70.6361 18.1189 71.2709 18.302C71.9057 18.4851 72.4428 18.7292 72.8944 19.0466C73.3461 19.364 73.578 19.7668 73.578 20.2673C73.578 20.8411 73.3461 21.3171 72.8944 21.6956C72.4428 22.0618 71.7958 22.2571 70.9535 22.2571C70.5873 22.2571 70.2211 22.196 69.8671 22.074C69.5009 21.9519 69.2079 21.8054 68.9882 21.6467C68.7563 21.488 68.5365 21.3049 68.3412 21.1096C68.1459 20.9143 68.0116 20.7678 67.9628 20.6946C67.9018 20.6213 67.8529 20.5603 67.8285 20.5115L66.5712 21.7566L66.7299 21.9885C66.8397 22.135 67.0106 22.3059 67.2548 22.5134C67.4989 22.7209 67.7797 22.9285 68.1093 23.136C68.4267 23.3313 68.8417 23.5144 69.3422 23.6609C69.8427 23.8074 70.3798 23.8806 70.9535 23.8806C72.2841 23.8806 73.3461 23.5266 74.1395 22.843C74.9208 22.1594 75.3236 21.2927 75.3236 20.2673C75.3236 19.4739 75.0917 18.8269 74.6522 18.3142C74.2006 17.8015 73.6635 17.4353 73.0287 17.2156C72.3939 16.9958 71.7592 16.7883 71.1244 16.6174C70.4896 16.4465 69.9403 16.2146 69.5009 15.9216C69.0492 15.6287 68.8295 15.238 68.8295 14.762C68.8295 14.2981 69.037 13.8831 69.4521 13.5413C69.8671 13.1872 70.4042 13.0164 71.0756 13.0164C71.5883 13.0164 72.0766 13.1262 72.5404 13.3581C72.9921 13.5901 73.2851 13.7732 73.4071 13.9075C73.5292 14.0417 73.6269 14.1638 73.7001 14.2615L74.9574 13.0041Z" fill="#08090A"/>
<path d="M78.1986 23.6243H79.9442V11.6247H78.1986V23.6243ZM77.9423 7.62084C77.9423 7.93823 78.0399 8.20678 78.2597 8.42651C78.4794 8.64623 78.7479 8.74389 79.0653 8.74389C79.3827 8.74389 79.6391 8.64623 79.8588 8.42651C80.0785 8.20678 80.1884 7.93823 80.1884 7.62084C80.1884 7.30346 80.0785 7.04711 79.8588 6.82739C79.6391 6.60766 79.3827 6.4978 79.0653 6.4978C78.7479 6.4978 78.4794 6.60766 78.2597 6.82739C78.0399 7.04711 77.9423 7.30346 77.9423 7.62084Z" fill="#08090A"/>
<path d="M90.9613 13.0041L90.7782 12.821C90.6806 12.7234 90.5097 12.6013 90.2899 12.4304C90.0702 12.2595 89.8139 12.1008 89.5331 11.9421C89.2401 11.7834 88.8739 11.6492 88.4345 11.5393C87.995 11.4294 87.5434 11.3684 87.0795 11.3684C85.932 11.3684 84.9677 11.7102 84.2108 12.3816C83.454 13.0652 83.0756 13.8464 83.0756 14.7498C83.0756 15.5188 83.2953 16.1414 83.747 16.6296C84.1986 17.1179 84.7479 17.4719 85.3827 17.6916C86.0175 17.9114 86.64 18.1189 87.2748 18.302C87.9096 18.4851 88.4467 18.7292 88.8983 19.0466C89.35 19.364 89.5819 19.7668 89.5819 20.2673C89.5819 20.8411 89.35 21.3171 88.8983 21.6956C88.4467 22.0618 87.7997 22.2571 86.9574 22.2571C86.5912 22.2571 86.225 22.196 85.871 22.074C85.5048 21.9519 85.2118 21.8054 84.9921 21.6467C84.7602 21.488 84.5404 21.3049 84.3451 21.1096C84.1498 20.9143 84.0155 20.7678 83.9667 20.6946C83.9057 20.6213 83.8568 20.5603 83.8324 20.5115L82.5751 21.7566L82.7338 21.9885C82.8437 22.135 83.0145 22.3059 83.2587 22.5134C83.5028 22.7209 83.7836 22.9285 84.1132 23.136C84.4306 23.3313 84.8456 23.5144 85.3461 23.6609C85.8466 23.8074 86.3837 23.8806 86.9574 23.8806C88.288 23.8806 89.35 23.5266 90.1435 22.843C90.9247 22.1594 91.3275 21.2927 91.3275 20.2673C91.3275 19.4739 91.0956 18.8269 90.6562 18.3142C90.2045 17.8015 89.6674 17.4353 89.0326 17.2156C88.3979 16.9958 87.7631 16.7883 87.1283 16.6174C86.4936 16.4465 85.9442 16.2146 85.5048 15.9216C85.0531 15.6287 84.8334 15.238 84.8334 14.762C84.8334 14.2981 85.0409 13.8831 85.456 13.5413C85.871 13.1872 86.4081 13.0164 87.0795 13.0164C87.5922 13.0164 88.0805 13.1262 88.5443 13.3581C88.996 13.5901 89.289 13.7732 89.411 13.9075C89.5331 14.0417 89.6308 14.1638 89.704 14.2615L90.9613 13.0041Z" fill="#08090A"/>
<path d="M93.702 22.6233C93.702 22.9895 93.8119 23.2947 94.0316 23.5266C94.2514 23.7585 94.5565 23.8684 94.935 23.8684C95.3256 23.8684 95.6308 23.7585 95.8505 23.5266C96.0702 23.2947 96.1801 22.9895 96.1801 22.6233C96.1801 22.2571 96.0702 21.9641 95.8505 21.7322C95.6308 21.5002 95.3256 21.3782 94.935 21.3782C94.5565 21.3782 94.2514 21.5002 94.0316 21.7322C93.8119 21.9641 93.702 22.2571 93.702 22.6233Z" fill="#08090A"/>
<path d="M98.3227 17.6184C98.3227 19.3518 98.9086 20.8289 100.093 22.0496C101.265 23.2703 102.681 23.8684 104.316 23.8684C104.902 23.8684 105.476 23.783 106.037 23.5998C106.599 23.4167 107.063 23.2214 107.417 23.0017C107.783 22.782 108.125 22.5378 108.442 22.2571C108.772 21.9763 108.992 21.781 109.089 21.6589C109.187 21.5369 109.26 21.4514 109.309 21.3782L108.064 20.2551L107.661 20.7434C107.38 21.0852 106.929 21.4148 106.306 21.7444C105.671 22.0862 105.012 22.2449 104.316 22.2449C103.169 22.2449 102.168 21.8054 101.326 20.9143C100.483 20.0232 100.068 18.9246 100.068 17.6306C100.068 16.3367 100.483 15.238 101.326 14.3469C102.168 13.4558 103.169 13.0041 104.316 13.0041C104.768 13.0041 105.207 13.0774 105.622 13.2117C106.037 13.3581 106.367 13.5168 106.636 13.6877C106.892 13.8586 107.136 14.0662 107.356 14.2981C107.576 14.5422 107.722 14.7009 107.783 14.7864C107.856 14.884 107.905 14.9451 107.93 14.9939L109.187 13.7488L108.662 13.175C108.32 12.7844 107.734 12.3816 106.929 11.9788C106.123 11.5759 105.244 11.3684 104.304 11.3684C102.681 11.3684 101.277 11.9788 100.093 13.1995C98.9086 14.4202 98.3227 15.885 98.3227 17.6184Z" fill="#08090A"/>
<path d="M114.442 16.7517C113.307 16.947 112.44 17.3498 111.842 17.9602C111.232 18.5706 110.939 19.3762 110.939 20.3772C110.939 21.2927 111.342 22.0984 112.16 22.8064C112.977 23.5144 113.991 23.8684 115.187 23.8684C115.663 23.8684 116.127 23.8074 116.579 23.6731C117.03 23.551 117.396 23.4045 117.677 23.2336C117.946 23.0627 118.202 22.8796 118.446 22.6599C118.69 22.4402 118.837 22.2937 118.91 22.2082C118.983 22.1228 119.032 22.0496 119.069 22.0007V23.6243H120.814V15.9949C120.814 14.6887 120.363 13.5901 119.459 12.699C118.556 11.8201 117.433 11.3684 116.066 11.3684C115.529 11.3684 114.992 11.4539 114.479 11.6125C113.966 11.7712 113.551 11.9543 113.234 12.1497C112.916 12.3572 112.611 12.5891 112.318 12.8455C112.025 13.1018 111.842 13.2849 111.757 13.3826C111.671 13.4802 111.61 13.5657 111.561 13.6267L112.684 14.7498L113.063 14.3225C113.307 14.0295 113.71 13.7366 114.271 13.4436C114.833 13.1506 115.431 13.0041 116.066 13.0041C116.945 13.0041 117.665 13.2849 118.226 13.8342C118.788 14.3957 119.069 15.116 119.069 15.9949L114.442 16.7517ZM115.187 22.2449C114.406 22.2449 113.783 22.074 113.344 21.72C112.904 21.366 112.684 20.9143 112.684 20.3772C112.684 19.2541 113.441 18.5461 114.943 18.2532L119.069 17.4963V18.2532C119.069 19.4373 118.703 20.4016 117.97 21.134C117.238 21.8787 116.31 22.2449 115.187 22.2449Z" fill="#08090A"/>
<path d="M131.807 13.0041L131.624 12.821C131.526 12.7234 131.355 12.6013 131.136 12.4304C130.916 12.2595 130.66 12.1008 130.379 11.9421C130.086 11.7834 129.72 11.6492 129.28 11.5393C128.841 11.4294 128.389 11.3684 127.925 11.3684C126.778 11.3684 125.813 11.7102 125.057 12.3816C124.3 13.0652 123.921 13.8464 123.921 14.7498C123.921 15.5188 124.141 16.1414 124.593 16.6296C125.044 17.1179 125.594 17.4719 126.228 17.6916C126.863 17.9114 127.486 18.1189 128.121 18.302C128.755 18.4851 129.292 18.7292 129.744 19.0466C130.196 19.364 130.428 19.7668 130.428 20.2673C130.428 20.8411 130.196 21.3171 129.744 21.6956C129.292 22.0618 128.645 22.2571 127.803 22.2571C127.437 22.2571 127.071 22.196 126.717 22.074C126.35 21.9519 126.058 21.8054 125.838 21.6467C125.606 21.488 125.386 21.3049 125.191 21.1096C124.996 20.9143 124.861 20.7678 124.812 20.6946C124.751 20.6213 124.703 20.5603 124.678 20.5115L123.421 21.7566L123.579 21.9885C123.689 22.135 123.86 22.3059 124.104 22.5134C124.349 22.7209 124.629 22.9285 124.959 23.136C125.276 23.3313 125.691 23.5144 126.192 23.6609C126.692 23.8074 127.229 23.8806 127.803 23.8806C129.134 23.8806 130.196 23.5266 130.989 22.843C131.77 22.1594 132.173 21.2927 132.173 20.2673C132.173 19.4739 131.941 18.8269 131.502 18.3142C131.05 17.8015 130.513 17.4353 129.878 17.2156C129.244 16.9958 128.609 16.7883 127.974 16.6174C127.339 16.4465 126.79 16.2146 126.35 15.9216C125.899 15.6287 125.679 15.238 125.679 14.762C125.679 14.2981 125.887 13.8831 126.302 13.5413C126.717 13.1872 127.254 13.0164 127.925 13.0164C128.438 13.0164 128.926 13.1262 129.39 13.3581C129.842 13.5901 130.135 13.7732 130.257 13.9075C130.379 14.0417 130.476 14.1638 130.55 14.2615L131.807 13.0041Z" fill="#08090A"/>
<path d="M136.916 6.11938H135.17V23.6243H136.916V16.9958C136.916 15.8362 137.27 14.884 137.99 14.1394C138.698 13.3826 139.589 13.0164 140.663 13.0164C141.616 13.0164 142.397 13.3337 143.007 13.9685C143.618 14.6033 143.923 15.4578 143.923 16.5076V23.6365H145.668V16.5076C145.668 14.9573 145.217 13.7122 144.313 12.7722C143.41 11.8445 142.238 11.3684 140.786 11.3684C140.297 11.3684 139.833 11.4416 139.382 11.5881C138.942 11.7346 138.576 11.8933 138.295 12.0642C138.027 12.2351 137.77 12.4426 137.526 12.6746C137.282 12.9187 137.136 13.0774 137.062 13.1628C136.989 13.2605 136.94 13.3215 136.904 13.3704L136.916 6.11938Z" fill="#08090A"/>
<path fill-rule="evenodd" clip-rule="evenodd" d="M42.4456 5.76938V12.6145C42.4806 12.582 42.5174 12.5483 42.556 12.5132C42.8367 12.2581 43.1339 12.0249 43.4721 11.8166C43.8118 11.5996 44.2336 11.4175 44.7416 11.2651C45.2627 11.1088 45.7971 11.0306 46.3437 11.0306C47.9758 11.0306 49.4084 11.6883 50.6153 12.9847C51.824 14.2709 52.4432 15.8337 52.4432 17.6306C52.4432 19.426 51.8373 20.9895 50.627 22.2771C49.42 23.5612 47.9875 24.2184 46.3437 24.2184C45.7975 24.2184 45.2623 24.1404 44.7515 23.9832C44.2612 23.8323 43.8268 23.651 43.4731 23.421C43.1275 23.2157 42.8329 22.9976 42.5769 22.7801C42.531 22.7411 42.4873 22.7026 42.4456 22.6648V23.9743H40V5.76938H42.4456ZM42.0956 21.7444L42.2787 21.9763C42.3238 22.0364 42.3791 22.1027 42.4456 22.1743C42.5411 22.2772 42.6596 22.391 42.8036 22.5134C43.0478 22.7209 43.3285 22.9285 43.6581 23.1238C43.9755 23.3313 44.3783 23.5022 44.8544 23.6487C45.3305 23.7952 45.831 23.8684 46.3437 23.8684C47.8817 23.8684 49.2245 23.2581 50.372 22.0373C51.5194 20.8166 52.0932 19.3396 52.0932 17.6306C52.0932 15.9216 51.5072 14.4446 50.3598 13.2239C49.2123 11.991 47.8695 11.3806 46.3437 11.3806C45.831 11.3806 45.3305 11.4539 44.8422 11.6003C44.3539 11.7468 43.9633 11.9177 43.6581 12.113C43.3407 12.3083 43.06 12.5281 42.7914 12.7722C42.6495 12.9013 42.5348 13.0098 42.4456 13.098C42.3661 13.1766 42.3068 13.2389 42.2665 13.2849C42.1811 13.3826 42.12 13.468 42.0956 13.5168V6.11938H40.35V23.6243H42.0956V21.7444ZM57.5333 16.4068L57.5362 16.4063L61.857 15.6995C61.8016 15.0415 61.5564 14.5094 61.1307 14.083C60.6415 13.6052 60.0127 13.3541 59.2162 13.3541C58.6377 13.3541 58.0951 13.4871 57.5837 13.7539C57.0396 14.0378 56.6834 14.305 56.4822 14.5466L56.4754 14.5547L55.8503 15.2602L54.2428 13.6527L54.4385 13.4081C54.447 13.3974 54.4587 13.3822 54.4729 13.3638C54.514 13.3103 54.5761 13.2293 54.6437 13.1521C54.7439 13.0376 54.9401 12.8429 55.2382 12.5821C55.5431 12.3152 55.8612 12.0734 56.1926 11.8567L56.2007 11.8515C56.5493 11.6369 56.993 11.4431 57.5258 11.2782C58.0703 11.1097 58.6422 11.0184 59.2162 11.0184C60.6695 11.0184 61.8816 11.5022 62.8538 12.4481L62.8556 12.4498C63.8277 13.4088 64.3147 14.5981 64.3147 15.9949V23.9743H61.8691V22.8854C61.8566 22.8968 61.8438 22.9083 61.8307 22.9201C61.5677 23.1568 61.2944 23.3514 61.0154 23.5289L61.0096 23.5327C60.6924 23.7257 60.2938 23.8827 59.8244 24.0098C59.3385 24.1538 58.8422 24.2184 58.3373 24.2184C57.0669 24.2184 55.9696 23.8403 55.0809 23.071C54.2009 22.3093 53.7393 21.4123 53.7393 20.3772C53.7393 19.3037 54.056 18.4025 54.7438 17.714C55.4086 17.0363 56.3512 16.6102 57.5333 16.4068ZM54.9926 17.9602C54.3822 18.5706 54.0893 19.3762 54.0893 20.3772C54.0893 21.2927 54.4921 22.0984 55.31 22.8064C56.1278 23.5144 57.141 23.8684 58.3373 23.8684C58.8134 23.8684 59.2772 23.8074 59.7289 23.6731C60.1806 23.551 60.5468 23.4045 60.8275 23.2336C61.0961 23.0627 61.3524 22.8796 61.5966 22.6599C61.7065 22.561 61.7966 22.4769 61.8691 22.4066C61.9578 22.3207 62.0202 22.2552 62.0604 22.2082C62.1148 22.1448 62.1558 22.0881 62.1882 22.0431L62.2095 22.0137L62.2191 22.0007V23.6243H63.9647V15.9949C63.9647 14.6887 63.5131 13.5901 62.6098 12.699C61.7064 11.8201 60.5834 11.3684 59.2162 11.3684C58.6791 11.3684 58.142 11.4539 57.6293 11.6125C57.1166 11.7712 56.7016 11.9543 56.3842 12.1497C56.0668 12.3572 55.7616 12.5891 55.4687 12.8455C55.1757 13.1018 54.9926 13.2849 54.9071 13.3826C54.8476 13.4507 54.7998 13.5128 54.7599 13.5649C54.7425 13.5875 54.7266 13.6082 54.7118 13.6267L55.8349 14.7498L56.2133 14.3225C56.4574 14.0295 56.8603 13.7366 57.4218 13.4436C57.9833 13.1506 58.5814 13.0041 59.2162 13.0041C60.0951 13.0041 60.8153 13.2849 61.3769 13.8342C61.9384 14.3957 62.2191 15.116 62.2191 15.9949L57.5927 16.7517C56.4574 16.947 55.5907 17.3498 54.9926 17.9602ZM61.1205 21.134C61.8529 20.4016 62.2191 19.4373 62.2191 18.2532V17.4963L58.0932 18.2532C56.5917 18.5461 55.8349 19.2541 55.8349 20.3772C55.8349 20.9143 56.0546 21.366 56.494 21.72C56.9335 22.074 57.5561 22.2449 58.3373 22.2449C59.4604 22.2449 60.3881 21.8787 61.1205 21.134ZM58.1602 18.5967C58.1596 18.5968 58.1589 18.5969 58.1583 18.5971C57.4441 18.7367 56.9513 18.9672 56.6406 19.259C56.3403 19.541 56.1849 19.9034 56.1849 20.3772C56.1849 20.8037 56.3529 21.1569 56.7136 21.4474C57.0684 21.7332 57.6014 21.8949 58.3373 21.8949C59.3758 21.8949 60.2106 21.56 60.871 20.8886L60.873 20.8865C61.5299 20.2297 61.8691 19.3594 61.8691 18.2532V17.9164L58.1602 18.5967ZM75.4524 13.0041L73.6622 14.7943L73.4201 14.4715C73.3524 14.3812 73.2617 14.2679 73.1481 14.1429C73.1199 14.1118 73.0489 14.0528 72.9105 13.9653C72.778 13.8817 72.6024 13.7835 72.3822 13.6704C71.9694 13.4643 71.5355 13.3664 71.0756 13.3664C70.4656 13.3664 70.016 13.5202 69.6792 13.8075L69.6746 13.8115C69.3285 14.0965 69.1795 14.417 69.1795 14.762C69.1795 15.107 69.3282 15.3925 69.6913 15.628L69.695 15.6304C70.0948 15.8969 70.6066 16.1156 71.2154 16.2795C71.8617 16.4535 72.5052 16.664 73.1432 16.8848C73.8373 17.1251 74.4248 17.5266 74.9149 18.0828L74.918 18.0864C75.4181 18.6699 75.6736 19.4005 75.6736 20.2673C75.6736 21.3967 75.2249 22.3584 74.37 23.1064L74.368 23.1082C73.4971 23.8585 72.3475 24.2306 70.9535 24.2306C70.3498 24.2306 69.7793 24.1535 69.2439 23.9968C68.7193 23.8433 68.2745 23.6486 67.9258 23.4341L67.9228 23.4322C67.5799 23.2162 67.2856 22.999 67.0281 22.7801C66.7765 22.5663 66.5828 22.3757 66.4499 22.1985L66.4453 22.1924L66.1175 21.7133L67.9255 19.9228L68.1413 20.3544C68.1406 20.353 68.1452 20.3616 68.1619 20.3839C68.179 20.4066 68.2015 20.4343 68.2317 20.4705L68.2436 20.4849L68.254 20.5004C68.2799 20.5393 68.3873 20.6607 68.5887 20.8621C68.7689 21.0423 68.972 21.2116 69.1858 21.3579L69.1932 21.3629C69.3775 21.496 69.6365 21.6282 69.9778 21.7419L69.9812 21.7431C70.2987 21.8526 70.6264 21.9071 70.9535 21.9071C71.744 21.9071 72.3024 21.7239 72.6719 21.4254C73.0472 21.11 73.228 20.7308 73.228 20.2673C73.228 19.8983 73.0669 19.5956 72.6932 19.333C72.2797 19.0424 71.7798 18.8131 71.1739 18.6383C70.5304 18.4527 69.9011 18.2428 69.2643 18.0224C68.5769 17.7844 67.9781 17.3992 67.4861 16.8673C66.9645 16.3033 66.7217 15.5907 66.7217 14.7498C66.7217 13.7327 67.1537 12.8612 67.9723 12.1218L67.9747 12.1197C68.8039 11.3842 69.8544 11.0184 71.0756 11.0184C71.5705 11.0184 72.0507 11.0836 72.5155 11.1998C72.9739 11.3144 73.3697 11.4577 73.6959 11.6344L73.7014 11.6374C73.9881 11.7994 74.2614 11.9679 74.5009 12.1541C74.5487 12.1913 74.597 12.2282 74.6445 12.2644C74.7925 12.3774 74.9323 12.4841 75.0218 12.5736L75.4524 13.0041ZM72.8944 21.6956C72.4428 22.0618 71.7958 22.2571 70.9535 22.2571C70.5873 22.2571 70.2211 22.196 69.8671 22.074C69.5009 21.9519 69.2079 21.8054 68.9882 21.6467C68.7563 21.488 68.5365 21.3049 68.3412 21.1096C68.2122 20.9806 68.1098 20.8729 68.0411 20.7935C68.0058 20.7527 67.9794 20.7194 67.9628 20.6946C67.9018 20.6213 67.8529 20.5603 67.8285 20.5115L66.5712 21.7566L66.7299 21.9885C66.8397 22.135 67.0106 22.3059 67.2548 22.5134C67.4989 22.7209 67.7797 22.9285 68.1093 23.136C68.4267 23.3313 68.8417 23.5144 69.3422 23.6609C69.8427 23.8074 70.3798 23.8806 70.9535 23.8806C72.2841 23.8806 73.3461 23.5266 74.1395 22.843C74.9208 22.1594 75.3236 21.2927 75.3236 20.2673C75.3236 19.4739 75.0917 18.8269 74.6522 18.3142C74.2006 17.8015 73.6635 17.4353 73.0287 17.2156C72.3939 16.9958 71.7592 16.7883 71.1244 16.6174C70.4896 16.4465 69.9403 16.2146 69.5009 15.9216C69.0492 15.6287 68.8295 15.238 68.8295 14.762C68.8295 14.2981 69.037 13.8831 69.4521 13.5413C69.8671 13.1872 70.4042 13.0164 71.0756 13.0164C71.5883 13.0164 72.0766 13.1262 72.5404 13.3581C72.9921 13.5901 73.2851 13.7732 73.4071 13.9075C73.432 13.9348 73.4558 13.9617 73.4787 13.9879C73.568 14.0905 73.6418 14.1837 73.7001 14.2615L74.9574 13.0041L74.7743 12.821C74.7548 12.8015 74.7324 12.781 74.7072 12.7594C74.6402 12.7017 74.5538 12.6357 74.4517 12.5577C74.4003 12.5185 74.3449 12.4762 74.286 12.4304C74.0663 12.2595 73.81 12.1008 73.5292 11.9421C73.2362 11.7834 72.87 11.6492 72.4306 11.5393C71.9911 11.4294 71.5395 11.3684 71.0756 11.3684C69.9281 11.3684 68.9638 11.7102 68.2069 12.3816C67.4501 13.0652 67.0717 13.8464 67.0717 14.7498C67.0717 15.5188 67.2914 16.1414 67.7431 16.6296C68.1947 17.1179 68.744 17.4719 69.3788 17.6916C70.0136 17.9114 70.6361 18.1189 71.2709 18.302C71.9057 18.4851 72.4428 18.7292 72.8944 19.0466C73.3461 19.364 73.578 19.7668 73.578 20.2673C73.578 20.8411 73.3461 21.3171 72.8944 21.6956ZM77.8486 23.9743V11.2747H80.2942V23.9743H77.8486ZM91.4563 13.0041L89.6661 14.7943L89.424 14.4715C89.3563 14.3812 89.2657 14.2679 89.1521 14.1429C89.1238 14.1118 89.0528 14.0528 88.9144 13.9653C88.7819 13.8817 88.6063 13.7835 88.3861 13.6704C87.9733 13.4643 87.5394 13.3664 87.0795 13.3664C86.4695 13.3664 86.0199 13.5202 85.6831 13.8075L85.6785 13.8115C85.3324 14.0965 85.1834 14.417 85.1834 14.762C85.1834 15.107 85.3321 15.3925 85.6953 15.628L85.6989 15.6304C86.0987 15.8969 86.6105 16.1156 87.2193 16.2795C87.8656 16.4535 88.5092 16.664 89.1471 16.8848C89.8412 17.1251 90.4287 17.5266 90.9188 18.0828L90.9219 18.0864C91.422 18.6699 91.6775 19.4005 91.6775 20.2673C91.6775 21.3967 91.2288 22.3584 90.3739 23.1064L90.3719 23.1082C89.501 23.8585 88.3514 24.2306 86.9574 24.2306C86.3537 24.2306 85.7832 24.1535 85.2478 23.9968C84.7232 23.8433 84.2784 23.6486 83.9297 23.4341L83.9267 23.4322C83.5838 23.2162 83.2895 22.999 83.032 22.7801C82.7804 22.5663 82.5867 22.3757 82.4538 22.1985L82.4492 22.1924L82.1214 21.7133L83.9294 19.9228L84.1451 20.3542C84.1452 20.3542 84.1502 20.363 84.1658 20.3839C84.1829 20.4066 84.2054 20.4343 84.2356 20.4705L84.2475 20.4849L84.2579 20.5004C84.2838 20.5393 84.3912 20.6607 84.5926 20.8621C84.7728 21.0423 84.9759 21.2116 85.1897 21.3579L85.1971 21.3629C85.3814 21.496 85.6404 21.6282 85.9817 21.7419L85.9851 21.7431C86.3026 21.8526 86.6303 21.9071 86.9574 21.9071C87.7479 21.9071 88.3063 21.7239 88.6758 21.4254C89.0511 21.11 89.2319 20.7308 89.2319 20.2673C89.2319 19.8983 89.0708 19.5956 88.6971 19.333C88.2836 19.0424 87.7837 18.8131 87.1778 18.6383C86.5343 18.4527 85.905 18.2428 85.2682 18.0224C84.5808 17.7844 83.982 17.3992 83.49 16.8673C82.9684 16.3033 82.7256 15.5907 82.7256 14.7498C82.7256 13.7327 83.1576 12.8612 83.9762 12.1218L83.9786 12.1197C84.8078 11.3842 85.8583 11.0184 87.0795 11.0184C87.5744 11.0184 88.0546 11.0836 88.5194 11.1998C88.9779 11.3144 89.3736 11.4577 89.6998 11.6344L89.7054 11.6374C89.992 11.7994 90.2654 11.9679 90.5048 12.1541C90.5526 12.1913 90.6009 12.2282 90.6484 12.2644C90.7964 12.3774 90.9362 12.4841 91.0257 12.5736L91.4563 13.0041ZM88.8983 21.6956C88.4467 22.0618 87.7997 22.2571 86.9574 22.2571C86.5912 22.2571 86.225 22.196 85.871 22.074C85.5048 21.9519 85.2118 21.8054 84.9921 21.6467C84.7602 21.488 84.5404 21.3049 84.3451 21.1096C84.2161 20.9806 84.1137 20.8729 84.045 20.7935C84.0097 20.7527 83.9833 20.7194 83.9667 20.6946C83.9057 20.6213 83.8568 20.5603 83.8324 20.5115L82.5751 21.7566L82.7338 21.9885C82.8437 22.135 83.0145 22.3059 83.2587 22.5134C83.5028 22.7209 83.7836 22.9285 84.1132 23.136C84.4306 23.3313 84.8456 23.5144 85.3461 23.6609C85.8466 23.8074 86.3837 23.8806 86.9574 23.8806C88.288 23.8806 89.35 23.5266 90.1435 22.843C90.9247 22.1594 91.3275 21.2927 91.3275 20.2673C91.3275 19.4739 91.0956 18.8269 90.6562 18.3142C90.2045 17.8015 89.6674 17.4353 89.0326 17.2156C88.3979 16.9958 87.7631 16.7883 87.1283 16.6174C86.4936 16.4465 85.9442 16.2146 85.5048 15.9216C85.0531 15.6287 84.8334 15.238 84.8334 14.762C84.8334 14.2981 85.0409 13.8831 85.456 13.5413C85.871 13.1872 86.4081 13.0164 87.0795 13.0164C87.5922 13.0164 88.0805 13.1262 88.5443 13.3581C88.996 13.5901 89.289 13.7732 89.411 13.9075C89.4359 13.9348 89.4598 13.9617 89.4826 13.9879C89.5719 14.0905 89.6457 14.1837 89.704 14.2615L90.9613 13.0041L90.7782 12.821C90.7587 12.8015 90.7363 12.781 90.7111 12.7594C90.6441 12.7017 90.5577 12.6357 90.4556 12.5577C90.4042 12.5185 90.3488 12.4762 90.2899 12.4304C90.0702 12.2595 89.8139 12.1008 89.5331 11.9421C89.2401 11.7834 88.8739 11.6492 88.4345 11.5393C87.995 11.4294 87.5434 11.3684 87.0795 11.3684C85.932 11.3684 84.9677 11.7102 84.2108 12.3816C83.454 13.0652 83.0756 13.8464 83.0756 14.7498C83.0756 15.5188 83.2953 16.1414 83.747 16.6296C84.1986 17.1179 84.7479 17.4719 85.3827 17.6916C86.0175 17.9114 86.64 18.1189 87.2748 18.302C87.9096 18.4851 88.4467 18.7292 88.8983 19.0466C89.35 19.364 89.5819 19.7668 89.5819 20.2673C89.5819 20.8411 89.35 21.3171 88.8983 21.6956ZM109.309 21.3782C109.273 21.4318 109.224 21.4919 109.162 21.5682C109.14 21.5961 109.115 21.6262 109.089 21.6589C108.992 21.781 108.772 21.9763 108.442 22.2571C108.125 22.5378 107.783 22.782 107.417 23.0017C107.063 23.2214 106.599 23.4167 106.037 23.5998C105.476 23.783 104.902 23.8684 104.316 23.8684C102.681 23.8684 101.265 23.2703 100.093 22.0496C98.9086 20.8289 98.3227 19.3518 98.3227 17.6184C98.3227 15.885 98.9086 14.4202 100.093 13.1995C101.277 11.9788 102.681 11.3684 104.304 11.3684C105.244 11.3684 106.123 11.5759 106.929 11.9788C107.734 12.3816 108.32 12.7844 108.662 13.175L109.187 13.7488L107.93 14.9939C107.91 14.9537 107.873 14.9053 107.82 14.835L107.783 14.7864C107.768 14.7649 107.747 14.7388 107.721 14.7078C107.661 14.6363 107.573 14.5391 107.46 14.4136L107.356 14.2981C107.136 14.0662 106.892 13.8586 106.636 13.6877C106.367 13.5168 106.037 13.3581 105.622 13.2117C105.207 13.0774 104.768 13.0041 104.316 13.0041C103.169 13.0041 102.168 13.4558 101.326 14.3469C100.483 15.238 100.068 16.3367 100.068 17.6306C100.068 18.9246 100.483 20.0232 101.326 20.9143C102.168 21.8054 103.169 22.2449 104.316 22.2449C105.012 22.2449 105.671 22.0862 106.306 21.7444C106.929 21.4148 107.38 21.0852 107.661 20.7434L108.064 20.2551L109.309 21.3782ZM105.51 13.5433C105.13 13.4207 104.728 13.3541 104.316 13.3541C103.273 13.3541 102.362 13.7603 101.58 14.5873C100.804 15.4084 100.418 16.4189 100.418 17.6306C100.418 18.8423 100.804 19.8528 101.58 20.6739C102.36 21.499 103.27 21.8949 104.316 21.8949C104.956 21.8949 105.558 21.7499 106.14 21.4362L106.142 21.435C106.748 21.1146 107.153 20.8111 107.391 20.5212L108.027 19.7502L109.768 21.3208L109.6 21.5723C109.555 21.6408 109.49 21.7203 109.424 21.8011C109.404 21.8266 109.383 21.8521 109.363 21.8776C109.239 22.0316 108.989 22.2509 108.672 22.5215C108.337 22.8168 107.979 23.0722 107.599 23.3005C107.211 23.5407 106.719 23.7459 106.146 23.9326C105.547 24.1278 104.937 24.2184 104.316 24.2184C102.585 24.2184 101.078 23.5809 99.8408 22.2926C98.5918 21.0047 97.9727 19.4396 97.9727 17.6184C97.9727 15.7962 98.5925 14.2433 99.8414 12.9558C101.088 11.6707 102.581 11.0184 104.304 11.0184C105.297 11.0184 106.23 11.238 107.085 11.6657C107.903 12.0748 108.536 12.5011 108.923 12.9416C108.924 12.9426 108.925 12.9436 108.925 12.9446L109.672 13.7607L107.833 15.5825L107.617 15.1508C107.617 15.1522 107.613 15.1434 107.592 15.1143C107.578 15.0951 107.563 15.0752 107.543 15.05C107.532 15.0345 107.519 15.0169 107.503 14.9964L107.498 14.9899C107.46 14.9365 107.368 14.8344 107.204 14.6528C107.172 14.6169 107.137 14.5779 107.099 14.5356C106.898 14.3238 106.676 14.1354 106.445 13.981C106.204 13.8284 105.902 13.6817 105.51 13.5433ZM114.383 16.4068L114.386 16.4063L118.707 15.6995C118.651 15.0414 118.406 14.5092 117.98 14.0829C117.491 13.6051 116.862 13.3541 116.066 13.3541C115.487 13.3541 114.945 13.4871 114.433 13.7539C113.889 14.0378 113.533 14.305 113.332 14.5466L113.325 14.5547L112.7 15.2602L111.092 13.6527L111.288 13.4081C111.297 13.3974 111.308 13.3822 111.323 13.3637C111.364 13.3102 111.426 13.2293 111.493 13.1521C111.594 13.0376 111.79 12.8429 112.088 12.5821C112.393 12.3152 112.711 12.0734 113.042 11.8567L113.05 11.8515C113.399 11.6369 113.843 11.4431 114.375 11.2782C114.92 11.1097 115.492 11.0184 116.066 11.0184C117.519 11.0184 118.731 11.5022 119.703 12.4481L119.705 12.4498C120.677 13.4088 121.164 14.5981 121.164 15.9949V23.9743H118.719V22.8854C118.706 22.8967 118.693 22.9083 118.68 22.9201C118.417 23.1568 118.144 23.3514 117.865 23.5289L117.859 23.5327C117.542 23.7257 117.143 23.8827 116.674 24.0098C116.188 24.1538 115.692 24.2184 115.187 24.2184C113.917 24.2184 112.819 23.8403 111.93 23.071C111.051 22.3093 110.589 21.4123 110.589 20.3772C110.589 19.3037 110.906 18.4025 111.593 17.714C112.258 17.0363 113.201 16.6102 114.383 16.4068ZM111.842 17.9602C111.232 18.5706 110.939 19.3762 110.939 20.3772C110.939 21.2927 111.342 22.0984 112.16 22.8064C112.977 23.5144 113.991 23.8684 115.187 23.8684C115.663 23.8684 116.127 23.8074 116.579 23.6731C117.03 23.551 117.396 23.4045 117.677 23.2336C117.946 23.0627 118.202 22.8796 118.446 22.6599C118.556 22.561 118.646 22.4769 118.719 22.4066C118.807 22.3207 118.87 22.2552 118.91 22.2082C118.964 22.1451 119.005 22.0885 119.037 22.0436L119.038 22.0423C119.044 22.0345 119.05 22.0266 119.055 22.0196C119.06 22.013 119.064 22.0067 119.069 22.0007V23.6243H120.814V15.9949C120.814 14.6887 120.363 13.5901 119.459 12.699C118.556 11.8201 117.433 11.3684 116.066 11.3684C115.529 11.3684 114.992 11.4539 114.479 11.6125C113.966 11.7712 113.551 11.9543 113.234 12.1497C112.916 12.3572 112.611 12.5891 112.318 12.8455C112.025 13.1018 111.842 13.2849 111.757 13.3826C111.697 13.4506 111.649 13.5128 111.61 13.5648L111.609 13.5656C111.597 13.5809 111.586 13.5952 111.576 13.6086L111.561 13.6267L112.684 14.7498L113.063 14.3225C113.307 14.0295 113.71 13.7366 114.271 13.4436C114.833 13.1506 115.431 13.0041 116.066 13.0041C116.945 13.0041 117.665 13.2849 118.226 13.8342C118.788 14.3957 119.069 15.116 119.069 15.9949L114.442 16.7517C113.307 16.947 112.44 17.3498 111.842 17.9602ZM117.97 21.134C118.703 20.4016 119.069 19.4373 119.069 18.2532V17.4963L114.943 18.2532C113.441 18.5461 112.684 19.2541 112.684 20.3772C112.684 20.9143 112.904 21.366 113.344 21.72C113.783 22.074 114.406 22.2449 115.187 22.2449C116.31 22.2449 117.238 21.8787 117.97 21.134ZM115.01 18.5967C115.009 18.5968 115.009 18.5969 115.008 18.5971C114.294 18.7367 113.801 18.9672 113.49 19.259C113.19 19.541 113.034 19.9034 113.034 20.3772C113.034 20.8037 113.203 21.1569 113.563 21.4474C113.918 21.7332 114.451 21.8949 115.187 21.8949C116.225 21.8949 117.06 21.56 117.721 20.8886L117.723 20.8865C118.38 20.2297 118.719 19.3594 118.719 18.2532V17.9164L115.01 18.5967ZM132.302 13.0041L130.512 14.7943L130.27 14.4715C130.202 14.3812 130.111 14.2679 129.998 14.1429C129.969 14.1118 129.899 14.0528 129.76 13.9653C129.628 13.8817 129.452 13.7835 129.232 13.6704C128.819 13.4643 128.385 13.3664 127.925 13.3664C127.315 13.3664 126.866 13.5202 126.529 13.8075L126.524 13.8114C126.178 14.0964 126.029 14.417 126.029 14.762C126.029 15.107 126.178 15.3925 126.541 15.628L126.545 15.6304C126.944 15.8969 127.456 16.1156 128.065 16.2795C128.711 16.4535 129.355 16.664 129.993 16.8848C130.687 17.1251 131.274 17.5266 131.764 18.0828L131.768 18.0864C132.268 18.6699 132.523 19.4005 132.523 20.2673C132.523 21.3967 132.075 22.3584 131.22 23.1064L131.218 23.1082C130.347 23.8585 129.197 24.2306 127.803 24.2306C127.199 24.2306 126.629 24.1535 126.093 23.9968C125.569 23.8433 125.124 23.6486 124.775 23.4341L124.772 23.4322C124.429 23.2162 124.135 22.999 123.878 22.7801C123.626 22.5663 123.432 22.3757 123.299 22.1985L123.295 22.1924L122.967 21.7133L124.775 19.9228L124.991 20.3544C124.99 20.3528 124.995 20.3613 125.012 20.3839C125.029 20.4066 125.051 20.4343 125.081 20.4705L125.093 20.4849L125.104 20.5004C125.13 20.5393 125.237 20.6607 125.438 20.8621C125.619 21.0423 125.822 21.2116 126.035 21.3579L126.043 21.3629C126.227 21.496 126.486 21.6282 126.827 21.7419L126.831 21.7431C127.148 21.8526 127.476 21.9071 127.803 21.9071C128.594 21.9071 129.152 21.724 129.521 21.4255C129.897 21.1101 130.078 20.7308 130.078 20.2673C130.078 19.8983 129.916 19.5956 129.543 19.333C129.129 19.0424 128.629 18.8131 128.023 18.6383C127.38 18.4527 126.751 18.2428 126.114 18.0224C125.426 17.7844 124.828 17.3992 124.336 16.8673C123.814 16.3033 123.571 15.5907 123.571 14.7498C123.571 13.7327 124.003 12.8612 124.822 12.1218L124.824 12.1197C125.653 11.3842 126.704 11.0184 127.925 11.0184C128.42 11.0184 128.9 11.0836 129.365 11.1998C129.824 11.3144 130.219 11.4577 130.546 11.6344L130.551 11.6374C130.838 11.7994 131.111 11.9679 131.351 12.1541C131.398 12.1913 131.447 12.2282 131.494 12.2644C131.642 12.3774 131.782 12.4841 131.871 12.5736L132.302 13.0041ZM129.744 21.6956C129.292 22.0618 128.645 22.2571 127.803 22.2571C127.437 22.2571 127.071 22.196 126.717 22.074C126.35 21.9519 126.058 21.8054 125.838 21.6467C125.606 21.488 125.386 21.3049 125.191 21.1096C125.062 20.9806 124.959 20.8729 124.891 20.7935C124.855 20.7527 124.829 20.7194 124.812 20.6946C124.751 20.6213 124.703 20.5603 124.678 20.5115L123.421 21.7566L123.579 21.9885C123.689 22.135 123.86 22.3059 124.104 22.5134C124.349 22.7209 124.629 22.9285 124.959 23.136C125.276 23.3313 125.691 23.5144 126.192 23.6609C126.692 23.8074 127.229 23.8806 127.803 23.8806C129.134 23.8806 130.196 23.5266 130.989 22.843C131.77 22.1594 132.173 21.2927 132.173 20.2673C132.173 19.4739 131.941 18.8269 131.502 18.3142C131.05 17.8015 130.513 17.4353 129.878 17.2156C129.244 16.9958 128.609 16.7883 127.974 16.6174C127.339 16.4465 126.79 16.2146 126.35 15.9216C125.899 15.6287 125.679 15.238 125.679 14.762C125.679 14.2981 125.887 13.8831 126.302 13.5413C126.717 13.1872 127.254 13.0164 127.925 13.0164C128.438 13.0164 128.926 13.1262 129.39 13.3581C129.842 13.5901 130.135 13.7732 130.257 13.9075C130.282 13.9348 130.305 13.9617 130.328 13.9879C130.418 14.0905 130.491 14.1837 130.55 14.2615L131.807 13.0041L131.624 12.821C131.624 12.8207 131.623 12.8204 131.623 12.82C131.604 12.8008 131.582 12.7807 131.557 12.7594C131.49 12.7017 131.403 12.6357 131.301 12.5577C131.25 12.5185 131.195 12.4762 131.136 12.4304C130.916 12.2595 130.66 12.1008 130.379 11.9421C130.086 11.7834 129.72 11.6492 129.28 11.5393C128.841 11.4294 128.389 11.3684 127.925 11.3684C126.778 11.3684 125.813 11.7102 125.057 12.3816C124.3 13.0652 123.921 13.8464 123.921 14.7498C123.921 15.5188 124.141 16.1414 124.593 16.6296C125.044 17.1179 125.594 17.4719 126.228 17.6916C126.863 17.9114 127.486 18.1189 128.121 18.302C128.755 18.4851 129.292 18.7292 129.744 19.0466C130.196 19.364 130.428 19.7668 130.428 20.2673C130.428 20.8411 130.196 21.3171 129.744 21.6956ZM137.267 5.76938L137.255 12.4506C137.263 12.4429 137.271 12.435 137.279 12.4271L137.285 12.4207C137.542 12.1767 137.816 11.9543 138.107 11.7689L138.113 11.7652C138.425 11.5757 138.818 11.4072 139.271 11.2561L139.274 11.2552C139.761 11.0972 140.261 11.0184 140.786 11.0184C142.323 11.0184 143.588 11.526 144.564 12.528L144.566 12.5297C145.543 13.5469 146.018 14.8851 146.018 16.5076V23.9865H143.573V16.5076C143.573 15.5284 143.29 14.7677 142.755 14.2111C142.216 13.6509 141.529 13.3664 140.663 13.3664C139.679 13.3664 138.883 13.6974 138.246 14.3785L138.242 14.3828C137.593 15.0531 137.266 15.9137 137.266 16.9958V23.9743H134.82V5.76938H137.267ZM137.254 12.9527C137.165 13.0464 137.103 13.1157 137.062 13.1628C137.019 13.22 136.985 13.2647 136.956 13.3017L136.955 13.3039C136.935 13.3291 136.918 13.3507 136.904 13.3704L136.916 6.11938H135.17V23.6243H136.916V16.9958C136.916 15.8362 137.27 14.884 137.99 14.1394C138.698 13.3826 139.589 13.0164 140.663 13.0164C141.616 13.0164 142.397 13.3337 143.007 13.9685C143.618 14.6033 143.923 15.4578 143.923 16.5076V23.6365H145.668V16.5076C145.668 14.9573 145.217 13.7122 144.313 12.7722C143.41 11.8445 142.238 11.3684 140.786 11.3684C140.297 11.3684 139.833 11.4416 139.382 11.5881C138.942 11.7346 138.576 11.8933 138.295 12.0642C138.027 12.2351 137.77 12.4426 137.526 12.6746C137.417 12.7841 137.327 12.8764 137.254 12.9527ZM43.6558 14.6365C42.8374 15.5004 42.4456 16.4889 42.4456 17.6306C42.4456 18.7723 42.8374 19.7608 43.6558 20.6248C44.4798 21.4945 45.3685 21.8949 46.3437 21.8949C47.2547 21.8949 48.0925 21.5096 48.8552 20.6672C49.6127 19.8306 49.9976 18.8287 49.9976 17.6306C49.9976 16.4325 49.6127 15.4307 48.8552 14.594C48.0905 13.7495 47.2522 13.3541 46.3437 13.3541C45.3709 13.3541 44.4818 13.7647 43.6558 14.6365ZM79.9442 11.6247H78.1986V23.6243H79.9442V11.6247ZM78.0122 8.67399C77.7185 8.38031 77.5923 8.01858 77.5923 7.62084C77.5923 7.21898 77.7211 6.87094 78.0122 6.5799C78.2991 6.29298 78.6573 6.1478 79.0653 6.1478C79.4774 6.1478 79.8223 6.29588 80.1063 6.5799C80.3903 6.86392 80.5384 7.20875 80.5384 7.62084C80.5384 8.02883 80.3932 8.38707 80.1063 8.67399C79.8152 8.96503 79.4672 9.09389 79.0653 9.09389C78.6676 9.09389 78.3059 8.96768 78.0122 8.67399ZM93.7776 23.7673C93.4861 23.4597 93.3521 23.0632 93.3521 22.6233C93.3521 22.1798 93.4883 21.7968 93.7776 21.4915C94.0738 21.1788 94.4767 21.0282 94.935 21.0282C95.4035 21.0282 95.8072 21.1776 96.1046 21.4915C96.3939 21.7968 96.5301 22.1798 96.5301 22.6233C96.5301 23.0632 96.396 23.4597 96.1046 23.7673C95.8017 24.087 95.3938 24.2184 94.935 24.2184C94.4865 24.2184 94.0794 24.0859 93.7776 23.7673ZM43.4018 14.3957C42.5229 15.3235 42.0956 16.3977 42.0956 17.6306C42.0956 18.8635 42.5229 19.9377 43.4018 20.8655C44.2807 21.7932 45.2572 22.2449 46.3437 22.2449C47.369 22.2449 48.2968 21.8054 49.1146 20.9021C49.9325 19.9988 50.3476 18.9123 50.3476 17.6306C50.3476 16.3489 49.9325 15.2624 49.1146 14.3591C48.2968 13.4558 47.369 13.0041 46.3437 13.0041C45.2572 13.0041 44.2807 13.468 43.4018 14.3957ZM78.2597 8.42651C78.0399 8.20678 77.9423 7.93823 77.9423 7.62084C77.9423 7.30346 78.0399 7.04711 78.2597 6.82739C78.4794 6.60766 78.7479 6.4978 79.0653 6.4978C79.3827 6.4978 79.6391 6.60766 79.8588 6.82739C80.0785 7.04711 80.1884 7.30346 80.1884 7.62084C80.1884 7.93823 80.0785 8.20678 79.8588 8.42651C79.6391 8.64623 79.3827 8.74389 79.0653 8.74389C78.7479 8.74389 78.4794 8.64623 78.2597 8.42651ZM94.0316 23.5266C93.8119 23.2947 93.702 22.9895 93.702 22.6233C93.702 22.2571 93.8119 21.9641 94.0316 21.7322C94.2514 21.5002 94.5565 21.3782 94.935 21.3782C95.3256 21.3782 95.6308 21.5002 95.8505 21.7322C96.0702 21.9641 96.1801 22.2571 96.1801 22.6233C96.1801 22.9895 96.0702 23.2947 95.8505 23.5266C95.6308 23.7585 95.3256 23.8684 94.935 23.8684C94.5565 23.8684 94.2514 23.7585 94.0316 23.5266Z" fill="#08090A"/>
</svg>
