<?xml version="1.0" encoding="utf-8"?>
<!-- Generator: Adobe Illustrator 22.1.0, SVG Export Plug-In . SVG Version: 6.00 Build 0)  -->
<svg version="1.1" id="图层_1" xmlns="http://www.w3.org/2000/svg" xmlns:xlink="http://www.w3.org/1999/xlink" x="0px" y="0px"
	 viewBox="0 0 150 48" style="enable-background:new 0 0 150 48;" xml:space="preserve">
<style type="text/css">
	.st0{fill:#006AE3;}
	.st1{fill:#FFFFFF;}
	.st2{fill:url(#SVGID_1_);}
</style>
<path class="st0" d="M0,24C0,10.7,10.7,0,24,0s24,10.7,24,24S37.3,48,24,48S0,37.3,0,24z"/>
<path class="st1" d="M23,34.1v-20h2.2v20H23z"/>
<path class="st1" d="M34.1,20.8l-6.7,1.8l-1.5-7l2-0.5l0.8,3.3c0,0,1.8-3-0.6-6.1c-1.4-1.6-2.1-1.7-3.7-1.9
	c-1.4-0.2-4.7,0.3-5.6,4.1c-0.4,2.5,0.1,4.3,3.2,6.7l-0.2,2.6c0,0-3.5-2.5-4.4-4.2c-0.7-1.4-1.9-4.1,0.3-7.9
	c1.2-1.9,3.5-3.7,7.6-3.5c2.1,0.1,7.1,2.6,6.3,8.5c-0.1,1.1-0.7,2.6-0.7,2.6l2.8-0.6L34.1,20.8z"/>
<path class="st1" d="M30.2,36.4c-1.2,1.9-3.6,3.6-7.7,3.3c-2.1-0.1-7-2.8-6.1-8.6c0.2-1.1,0.8-2.5,0.8-2.5l-2.8,0.5L14,26.9l6.8-1.6
	l1.3,7l-2,0.4l-0.7-3.3c0,0-1.9,2.9,0.4,6.1c1.4,1.6,2.1,1.7,3.7,2c1.4,0.2,4.7-0.2,5.8-3.9c0.5-2.4,0.1-4.3-3-6.7l0.2-2.6
	c0,0,3.5,2.6,4.3,4.4C31.4,29.9,32.5,32.7,30.2,36.4z"/>
<linearGradient id="SVGID_1_" gradientUnits="userSpaceOnUse" x1="64.6667" y1="26.5635" x2="143.0887" y2="26.5635">
	<stop  offset="0" style="stop-color:#FFFFFF"/>
	<stop  offset="0" style="stop-color:#000000"/>
</linearGradient>
<path class="st2" d="M64,15.7h4.6l2.9,8.6c0.2,0.7,0.4,1.6,0.5,2.7H72c0.1-0.9,0.3-1.8,0.6-2.7l2.8-8.6h4.5L73.5,33
	c-0.6,1.6-1.4,2.8-2.5,3.6c-1.1,0.8-2.4,1.2-3.8,1.2c-0.7,0-1.4-0.1-2.1-0.2v-3.3c0.5,0.1,1,0.2,1.6,0.2c0.7,0,1.4-0.2,1.9-0.7
	c0.6-0.4,1-1.1,1.3-2l0.2-0.8L64,15.7z M88.5,18.4c-0.9,0-1.6,0.3-2.1,0.8c-0.5,0.6-0.8,1.3-0.9,2.4h5.9c0-1-0.3-1.8-0.8-2.4
	C90,18.7,89.3,18.4,88.5,18.4z M89,31.3c-2.5,0-4.4-0.7-5.8-2c-1.4-1.4-2.1-3.3-2.1-5.8c0-2.6,0.6-4.5,1.9-5.9
	c1.3-1.4,3.1-2.1,5.3-2.1c2.2,0,3.8,0.6,5,1.8c1.2,1.2,1.8,2.9,1.8,5.1v2h-9.9c0,1.2,0.4,2.1,1.1,2.8c0.7,0.7,1.6,1,2.8,1
	c0.9,0,1.8-0.1,2.6-0.3c0.8-0.2,1.7-0.5,2.6-0.9v3.2c-0.7,0.4-1.5,0.6-2.3,0.8C91.3,31.2,90.2,31.3,89,31.3z M108.4,31l-0.8-2.1
	h-0.1c-0.7,0.9-1.4,1.5-2.2,1.8c-0.7,0.3-1.7,0.5-2.9,0.5c-1.5,0-2.6-0.4-3.5-1.3c-0.8-0.8-1.3-2-1.3-3.6c0-1.6,0.6-2.8,1.7-3.6
	c1.1-0.8,2.9-1.2,5.1-1.3l2.7-0.1v-0.7c0-1.5-0.8-2.3-2.4-2.3c-1.2,0-2.7,0.4-4.3,1.1l-1.4-2.8c1.8-0.9,3.7-1.4,5.9-1.4
	c2.1,0,3.6,0.4,4.7,1.3c1.1,0.9,1.6,2.3,1.6,4.1V31H108.4z M107.1,23.9l-1.6,0.1c-1.2,0-2.1,0.3-2.7,0.7c-0.6,0.4-0.9,1-0.9,1.8
	c0,1.2,0.7,1.8,2,1.8c1,0,1.7-0.3,2.3-0.8c0.6-0.6,0.9-1.3,0.9-2.2V23.9z M124.1,15.4c0.6,0,1,0,1.4,0.1l-0.3,3.9
	c-0.3-0.1-0.7-0.1-1.2-0.1c-1.3,0-2.4,0.3-3.1,1c-0.7,0.7-1.1,1.6-1.1,2.9V31h-4.2V15.7h3.2l0.6,2.6h0.2c0.5-0.9,1.1-1.5,1.9-2.1
	C122.3,15.7,123.2,15.4,124.1,15.4z M142.4,31h-4.2v-8.9c0-1.1-0.2-1.9-0.6-2.5c-0.4-0.6-1-0.8-1.9-0.8c-1.2,0-2,0.4-2.5,1.2
	c-0.5,0.8-0.8,2.1-0.8,3.9V31h-4.2V15.7h3.2l0.6,2h0.2c0.5-0.7,1.1-1.3,1.9-1.7c0.8-0.4,1.8-0.6,2.8-0.6c1.8,0,3.1,0.5,4,1.4
	c0.9,1,1.4,2.3,1.4,4.2V31z"/>
</svg>
