<?xml version="1.0" encoding="utf-8"?>
<!-- Generator: Adobe Illustrator 22.1.0, SVG Export Plug-In . SVG Version: 6.00 Build 0)  -->
<svg version="1.1" id="图层_1" xmlns="http://www.w3.org/2000/svg" xmlns:xlink="http://www.w3.org/1999/xlink" x="0px" y="0px"
	 viewBox="0 0 121 27" style="enable-background:new 0 0 121 27;" xml:space="preserve">
<style type="text/css">
	.st0{clip-path:url(#SVGID_2_);}
	.st1{fill:url(#SVGID_3_);}
	.st2{fill:#00D395;}
</style>
<g>
	<defs>
		<rect id="SVGID_1_" width="121" height="27"/>
	</defs>
	<clipPath id="SVGID_2_">
		<use xlink:href="#SVGID_1_"  style="overflow:visible;"/>
	</clipPath>
	<g class="st0">
		<linearGradient id="SVGID_3_" gradientUnits="userSpaceOnUse" x1="240.4365" y1="12.8042" x2="154.9365" y2="14.0542">
			<stop  offset="0" style="stop-color:#FFFFFF"/>
			<stop  offset="1" style="stop-color:#000000"/>
		</linearGradient>
		<path class="st1" d="M118.8,15.4c0-1.6-0.9-2.8-2.4-2.8c-1.5,0-2.4,1.2-2.4,2.8c0,1.6,0.9,2.8,2.4,2.8
			C117.9,18.1,118.8,16.9,118.8,15.4z M118.7,11.5V7.4c0-0.3,0.2-0.5,0.4-0.6l2.2-0.6v14h-2.4V19c-0.6,0.9-1.7,1.4-3.1,1.4
			c-2.8,0-4.5-2.3-4.5-5.1c0-2.8,1.7-5.1,4.5-5.1C117.2,10.3,118.2,10.9,118.7,11.5z M103.7,10.5v1.2c0.4-0.8,1.4-1.4,2.9-1.4
			c2.3,0,3.6,1.6,3.6,3.9v6.1h-2.6v-5.8c0-1.1-0.5-1.9-1.7-1.9c-1.3,0-2,0.8-2,2.1v5.6h-2.6v-9.7H103.7z M95.1,20.5
			c-2.8,0-4.4-1.2-4.4-4.4v-5.6h2.6v5.6c0,1.4,0.6,2,1.8,2s1.8-0.6,1.8-2v-5.6h2.6v5.6C99.6,19.2,98,20.5,95.1,20.5z M82,15.4
			c0,1.7,1.1,2.8,2.5,2.8c1.4,0,2.5-1,2.5-2.8c0-1.7-1.1-2.8-2.5-2.8C83.1,12.6,82,13.6,82,15.4z M84.5,20.5c-3.1,0-5.1-2.3-5.1-5.1
			s2-5.1,5.1-5.1c3.1,0,5.1,2.3,5.1,5.1C89.6,18.1,87.6,20.5,84.5,20.5z M71.3,15.4c0,1.6,0.9,2.8,2.4,2.8c1.5,0,2.4-1.2,2.4-2.8
			c0-1.6-0.9-2.8-2.4-2.8C72.2,12.6,71.3,13.8,71.3,15.4z M71.4,19.2v4c0,0.3-0.2,0.5-0.4,0.6l-2.2,0.6V10.5h2.4v1.2
			c0.6-0.9,1.7-1.4,3.1-1.4c2.8,0,4.5,2.3,4.5,5.1c0,2.8-1.7,5.1-4.5,5.1C72.9,20.5,71.9,19.9,71.4,19.2z M60.9,14.7v5.5h-2.6v-5.8
			c0-1.1-0.4-1.9-1.6-1.9c-1.2,0-1.9,0.8-1.9,2.1v5.6h-2.6v-9.7h2.4v1.2c0.4-0.8,1.4-1.4,2.8-1.4c1.3,0,2.3,0.5,2.8,1.4
			c0.9-0.9,1.8-1.4,3.2-1.4c2.3,0,3.5,1.6,3.5,3.9v6.1h-2.6v-5.8c0-1.1-0.4-1.9-1.6-1.9C61.6,12.5,60.9,13.3,60.9,14.7z M43.4,15.4
			c0,1.7,1.1,2.8,2.5,2.8c1.4,0,2.5-1,2.5-2.8c0-1.7-1.1-2.8-2.5-2.8C44.5,12.6,43.4,13.6,43.4,15.4z M45.9,20.5
			c-3.1,0-5.1-2.3-5.1-5.1s2-5.1,5.1-5.1c3.1,0,5.1,2.3,5.1,5.1S49,20.5,45.9,20.5z M27,13.6c0-4.1,2.8-6.9,6.6-6.9
			c3.3,0,5.9,2,6.4,5.2h-2.9c-0.4-1.7-1.7-2.6-3.5-2.6c-2.4,0-3.8,1.7-3.8,4.3s1.4,4.3,3.8,4.3c1.8,0,3.1-0.9,3.5-2.6h2.9
			c-0.5,3.2-3.1,5.2-6.4,5.2C29.9,20.5,27,17.7,27,13.6z"/>
		<path class="st2" d="M1.1,21C0.4,20.6,0,19.9,0,19.1v-4.4c0-0.2,0-0.3,0.1-0.5c0.3-0.5,0.8-0.6,1.3-0.3l9.9,5.8
			c0.6,0.3,0.9,1,0.9,1.6v4.6c0,0.2-0.1,0.4-0.2,0.6c-0.3,0.5-1,0.7-1.6,0.4L1.1,21z M15.9,12.7c0.6,0.3,0.9,1,0.9,1.6v9.2
			c0,0.3-0.1,0.5-0.4,0.7l-2.2,1.2c0,0-0.1,0-0.1,0v-5.1c0-0.7-0.3-1.3-0.9-1.6l-8.7-5.2V7.7c0-0.2,0-0.3,0.1-0.5
			c0.3-0.5,0.8-0.6,1.3-0.3L15.9,12.7z M20.2,5.9c0.6,0.3,0.9,1,0.9,1.6V21c0,0.3-0.2,0.5-0.4,0.7l-2.1,1.1v-9.4
			c0-0.7-0.3-1.3-0.9-1.6L8.9,6.4V0.9c0-0.2,0-0.3,0.1-0.5C9.3,0,9.8-0.1,10.3,0.1L20.2,5.9z"/>
	</g>
</g>
</svg>
