<?xml version="1.0" encoding="utf-8"?>
<!-- Generator: Adobe Illustrator 25.0.0, SVG Export Plug-In . SVG Version: 6.00 Build 0)  -->
<svg version="1.1" id="图层_1" xmlns="http://www.w3.org/2000/svg" xmlns:xlink="http://www.w3.org/1999/xlink" x="0px" y="0px"
	 viewBox="0 0 941 175" style="enable-background:new 0 0 941 175;" xml:space="preserve">
<style type="text/css">
	.st0{clip-path:url(#SVGID_2_);}
	.st1{fill:#FFFFFF;}
	.st2{fill-rule:evenodd;clip-rule:evenodd;fill:url(#SVGID_3_);}
	.st3{fill-rule:evenodd;clip-rule:evenodd;fill:url(#SVGID_4_);}
	.st4{fill-rule:evenodd;clip-rule:evenodd;fill:url(#SVGID_5_);}
	.st5{fill-rule:evenodd;clip-rule:evenodd;fill:url(#SVGID_6_);}
	.st6{fill:#6D6D6D;}
</style>
<g>
	<defs>
		<rect id="SVGID_1_" width="174.6" height="174.6"/>
	</defs>
	<clipPath id="SVGID_2_">
		<use xlink:href="#SVGID_1_"  style="overflow:visible;"/>
	</clipPath>
	<g class="st0">
		<path class="st1" d="M147.3,174.6c-8,0-15.4-3.5-20.6-9.4c-12.2,6.2-25.7,9.4-39.4,9.4C39.2,174.6,0,135.4,0,87.3
			C0,39.2,39.2,0,87.3,0c48.1,0,87.3,39.3,87.3,87.5l-1.8,0l1.8,0v0v59.8C174.6,162.4,162.4,174.6,147.3,174.6z M129,155.2l2,3
			c3.6,5.5,9.8,8.8,16.3,8.8c10.8,0,19.6-8.8,19.6-19.6V87.6c0-44.1-35.7-79.9-79.6-79.9C43.4,7.7,7.7,43.4,7.7,87.3
			c0,43.9,35.7,79.6,79.6,79.6c13.5,0,26.9-3.5,38.6-10L129,155.2z"/>
		
			<linearGradient id="SVGID_3_" gradientUnits="userSpaceOnUse" x1="94.401" y1="122.5124" x2="73.8356" y2="28.8253" gradientTransform="matrix(1 0 0 -1 0 176)">
			<stop  offset="0" style="stop-color:#521C89"/>
			<stop  offset="0.5164" style="stop-color:#8D1AF1"/>
			<stop  offset="1" style="stop-color:#FFA5F6"/>
		</linearGradient>
		<path class="st2" d="M83.9,154.7c37.2,1.4,68.5-27.6,69.9-64.9c0.1-3.2,0-6.3-0.3-9.5c0.1,3.8-0.9,7.7-3.2,10.6
			c-5.3,6.4-14.3,4.8-15.8-1.7c-0.8-3.6,0.7-7.9,3.8-10c-17-2.7-21.8,13.7-30.7,22.4c-9.6,9.4-24.4,6-27-5.2
			c-1.4-6.2,1.2-13.8,6.5-17.4c-8.9-2.1-15.6,0.6-21.8,6.8c-5.9,5.9-10.2,13.7-17.3,17.9c-6.7,4-16.1,4.4-22.1-1.3
			c-4.4-4.2-6.5-10.8-6.7-17.9C17.7,121.9,46.7,153.2,83.9,154.7z"/>
		
			<linearGradient id="SVGID_4_" gradientUnits="userSpaceOnUse" x1="51.8049" y1="73.9742" x2="66.6576" y2="136.8137" gradientTransform="matrix(1 0 0 -1 0 176)">
			<stop  offset="0" style="stop-color:#1837D8"/>
			<stop  offset="0.5074" style="stop-color:#00C1FF"/>
			<stop  offset="1" style="stop-color:#70E6FF"/>
		</linearGradient>
		<path class="st3" d="M80.4,59c34.1-0.2,29.4-41.9-0.4-39c-33.1,3.2-59.5,30.4-60.8,64.6c0.2,7,2.3,13.7,6.7,17.9
			c6,5.6,15.4,5.3,22.1,1.3c2.9-1.7,5.3-4,7.6-6.5c-6.5,7.5-16.4,3.9-16.9-5.8c-0.5-9.5,4.7-19,12.2-24.6
			C58.9,60.7,69.5,59.1,80.4,59z"/>
		
			<linearGradient id="SVGID_5_" gradientUnits="userSpaceOnUse" x1="107.1523" y1="60.8924" x2="122.0053" y2="123.7316" gradientTransform="matrix(1 0 0 -1 0 176)">
			<stop  offset="0" style="stop-color:#1837D8"/>
			<stop  offset="0.5074" style="stop-color:#00C1FF"/>
			<stop  offset="1" style="stop-color:#70E6FF"/>
		</linearGradient>
		<path class="st4" d="M123.4,36.8c6.3,0.2,11.2,5.5,10.9,11.8c-0.2,6.2-5.5,11.2-11.7,10.9c-6.3-0.3-11.1-5.6-10.9-11.8
			C111.9,41.3,117.2,36.5,123.4,36.8z"/>
		
			<linearGradient id="SVGID_6_" gradientUnits="userSpaceOnUse" x1="127.1178" y1="56.173" x2="141.9698" y2="119.0125" gradientTransform="matrix(1 0 0 -1 0 176)">
			<stop  offset="0" style="stop-color:#1837D8"/>
			<stop  offset="0.5074" style="stop-color:#00C1FF"/>
			<stop  offset="1" style="stop-color:#70E6FF"/>
		</linearGradient>
		<path class="st5" d="M140.3,58.3c3.7,0.1,6.6,3.3,6.5,7c-0.1,3.7-3.3,6.7-7,6.5c-3.7-0.2-6.6-3.3-6.5-7.1
			C133.5,61.1,136.6,58.2,140.3,58.3z"/>
	</g>
</g>
<path class="st6" d="M320.8,65.4v79.4h-10.1v-13.6c-4.3,5.2-9.1,9.1-14.4,11.8c-5.3,2.6-11.1,3.9-17.4,3.9
	c-11.2,0-20.8-4.1-28.8-12.2c-7.9-8.2-11.9-18.1-11.9-29.8c0-11.4,4-21.2,12-29.3c8-8.1,17.7-12.2,29-12.2c6.5,0,12.4,1.4,17.7,4.2
	c5.3,2.8,9.9,6.9,13.9,12.5V65.4H320.8z M279.9,73.2c-5.7,0-10.9,1.4-15.8,4.2c-4.8,2.8-8.7,6.7-11.5,11.7
	c-2.8,5.1-4.2,10.4-4.2,16.1c0,5.6,1.4,10.9,4.3,16.1c2.9,5.1,6.7,9.1,11.5,12c4.9,2.8,10.1,4.2,15.6,4.2c5.6,0,10.9-1.4,15.9-4.2
	c5-2.8,8.9-6.6,11.5-11.5c2.7-4.8,4.1-10.2,4.1-16.3c0-9.2-3-16.9-9.1-23.1C296.2,76.3,288.8,73.2,279.9,73.2z M343.8,34.8H354v110
	h-10.2V34.8z M453.8,81.9l-8.1,5c-7-9.3-16.6-13.9-28.7-13.9c-9.7,0-17.7,3.1-24.2,9.3c-6.4,6.2-9.6,13.8-9.6,22.7
	c0,5.8,1.5,11.2,4.4,16.3c3,5.1,7,9.1,12.1,11.9c5.2,2.8,10.9,4.2,17.3,4.2c11.7,0,21.2-4.6,28.6-13.9l8.1,5.3
	c-3.8,5.7-8.9,10.1-15.3,13.3c-6.4,3.1-13.6,4.7-21.8,4.7c-12.6,0-23-4-31.2-12c-8.3-8-12.4-17.7-12.4-29.1c0-7.7,1.9-14.8,5.8-21.4
	c3.9-6.6,9.2-11.8,16-15.5c6.8-3.7,14.3-5.5,22.7-5.5c5.3,0,10.3,0.8,15.2,2.4c4.9,1.6,9.1,3.7,12.5,6.3
	C448.5,74.6,451.4,77.9,453.8,81.9z M475,34.8h10.2v44.9c4.1-5.4,8.7-9.5,13.6-12.2c5-2.7,10.3-4.1,16.1-4.1
	c5.9,0,11.2,1.5,15.8,4.5c4.6,3,8,7.1,10.2,12.2c2.2,5.1,3.3,13,3.3,23.9v40.9h-10.2v-37.9c0-9.1-0.4-15.3-1.1-18.3
	c-1.3-5.3-3.6-9.2-6.9-11.8c-3.3-2.7-7.7-4-13.1-4c-6.2,0-11.7,2-16.6,6.1c-4.9,4.1-8.1,9.1-9.6,15.2c-1,3.9-1.5,11.1-1.5,21.6v29.1
	H475V34.8z M634.6,118.5l8.6,4.5c-2.8,5.5-6.1,10-9.8,13.4c-3.7,3.4-7.9,6-12.5,7.8c-4.6,1.8-9.9,2.6-15.7,2.6
	c-12.9,0-23.1-4.2-30.4-12.7c-7.3-8.5-10.9-18.1-10.9-28.8c0-10.1,3.1-19,9.3-26.9c7.8-10,18.3-15,31.5-15
	c13.5,0,24.3,5.1,32.4,15.4c5.7,7.2,8.7,16.3,8.8,27.1h-71.4c0.2,9.2,3.1,16.8,8.8,22.8c5.7,5.9,12.7,8.8,21.1,8.8
	c4,0,8-0.7,11.7-2.1c3.8-1.4,7.1-3.3,9.8-5.6C628.6,127.5,631.5,123.7,634.6,118.5z M634.6,97.1c-1.4-5.4-3.4-9.8-6-13.1
	c-2.6-3.3-6-5.9-10.3-7.9c-4.3-2-8.8-3-13.5-3c-7.8,0-14.5,2.5-20.1,7.5c-4.1,3.6-7.2,9.1-9.3,16.4H634.6z M666.4,65.4h10.1v13.7
	c3.6-5.1,7.2-8.8,10.9-11.1c5.2-3.1,10.6-4.7,16.3-4.7c3.8,0,7.5,0.8,10.9,2.3c3.5,1.5,6.3,3.5,8.5,6.1c2.2,2.5,4.1,6.1,5.7,10.7
	c3.4-6.2,7.7-10.9,12.8-14.2c5.1-3.3,10.6-4.9,16.5-4.9c5.5,0,10.3,1.4,14.5,4.2c4.2,2.8,7.4,6.6,9.4,11.6c2,5,3.1,12.4,3.1,22.3
	v43.3h-10.4v-43.3c0-8.5-0.6-14.4-1.8-17.5c-1.2-3.2-3.3-5.8-6.3-7.7c-2.9-1.9-6.4-2.9-10.5-2.9c-5,0-9.5,1.5-13.6,4.4
	c-4.1,2.9-7.1,6.8-9,11.7c-1.9,4.9-2.8,13-2.8,24.4v31.1h-10.1v-40.6c0-9.6-0.6-16.1-1.8-19.5c-1.2-3.5-3.2-6.2-6.2-8.2
	c-3-2.1-6.5-3.1-10.6-3.1c-4.7,0-9.1,1.4-13.3,4.3c-4.1,2.8-7.1,6.6-9.1,11.5c-1.9,4.8-2.9,12.2-2.9,22.1v33.6h-10.1V65.4z
	 M811.8,32.7c2.3,0,4.3,0.8,6,2.5c1.7,1.7,2.5,3.6,2.5,6c0,2.3-0.8,4.3-2.5,5.9c-1.7,1.7-3.6,2.5-6,2.5c-2.3,0-4.3-0.8-5.9-2.5
	c-1.7-1.7-2.5-3.6-2.5-5.9c0-2.3,0.8-4.3,2.5-6C807.5,33.6,809.5,32.7,811.8,32.7z M806.7,65.4h10.3v79.4h-10.3V65.4z M879.5,74.1
	l-6.6,6.8c-5.4-5.3-10.8-8-16-8c-3.3,0-6.2,1.1-8.5,3.3c-2.3,2.2-3.5,4.7-3.5,7.7c0,2.6,1,5,2.9,7.4c1.9,2.4,6,5.2,12.3,8.4
	c7.6,3.9,12.7,7.7,15.5,11.4c2.7,3.7,4,7.9,4,12.5c0,6.5-2.3,12-6.9,16.6c-4.6,4.5-10.3,6.8-17.2,6.8c-4.6,0-9-1-13.1-3
	c-4.1-2-7.6-4.7-10.3-8.2l6.4-7.3c5.2,5.9,10.7,8.8,16.6,8.8c4.1,0,7.6-1.3,10.4-3.9c2.9-2.6,4.3-5.7,4.3-9.3c0-2.9-0.9-5.5-2.8-7.8
	c-1.9-2.2-6.2-5.1-12.8-8.5c-7.2-3.7-12-7.3-14.6-10.9c-2.6-3.6-3.9-7.7-3.9-12.3c0-6,2-11,6.1-15c4.1-4,9.3-6,15.6-6
	C864.8,63.4,872.1,67,879.5,74.1z M908.1,35.9h10.3v29.5h16.2v8.8h-16.2v70.6h-10.3V74.2h-13.9v-8.8h13.9V35.9z"/>
</svg>
